<svg id="Calque_1" data-name="Calque 1" xmlns="http://www.w3.org/2000/svg" viewBox="0 0 412.5 279.91"><defs><style>.cls-1,.cls-3{fill:#fff;}.cls-1,.cls-4{opacity:0;}.cls-2{fill:#4e4e4e;}.cls-5{fill:#d29349;}.cls-6{fill:#4f4e4f;}.cls-7{fill:none;stroke:#d29349;stroke-miterlimit:10;}</style></defs><path class="cls-1" d="M601.86,214.2H206.37V29.55H601.86ZM260.51,169.31l1.41.46c1.37-3.17,2.86-6.3,4.09-9.53,3.84-10.11,7.42-20.32,11.43-30.36,1.53-3.82,3.95-7.28,6-10.91l1,.33c-2.9,8.78-4.74,17.61-1.72,25.92l14.1-35.72,1.43.28v17.61l1,0c3.77-8.18,1.31-17.48,3.68-25.92l1.49-.18,5.52,18.25-1.18.54-3.51-2.67a9.93,9.93,0,0,0,.61,2.39c3.79,5.81,3.19,11.17-1.15,16.49-1.25,1.53-1.66,3.75-2.46,5.65l.9.44,3.1-1.74L304,148l1.11.79c1.64-1.16,3.66-2,4.86-3.53a179.94,179.94,0,0,0,10.77-14.75c3-4.71,5.25-9.91,8.15-14.7,2.13-3.53,4.77-6.75,7.18-10.1l1.33.62q-4.47,18.51-8.95,37c10-6.83,14.12-17.48,20.32-26.79-.64,7.16-1.48,13.94-1.78,20.75s-.07,13.49-.07,20.24l1.52.33,8.82-14.55,1,.4c.18,2.45.22,4.92.57,7.35a87.91,87.91,0,0,0,1.93,10.21c.29,1.07,1.73,1.84,2.64,2.74.82-1,2-1.89,2.37-3a18.61,18.61,0,0,0,.85-5.88,144,144,0,0,1,7.59-48.1,30.55,30.55,0,0,0,.75-4.72l-1.36-.54-14.3,22.61a20,20,0,0,1,.08-8.25c2.7-9.7,5.71-19.31,8.55-29,.45-1.53.63-3.15.93-4.73-4.92,5.77-10,10.62-18,13.1,12-11.67,20.44-24.94,29.27-39.36C384,72.05,387.49,86.7,391,101.36l1.81-.2c.35-5.76.71-11.52,1.06-17.23,4.05,11,8,21.85,12,32.68,1.21,3.25,3.06,6.37,3.69,9.72,1.49,7.94,2.8,16,3.49,24,.63,7.23,4.1,12.66,9,17.47a21.84,21.84,0,0,0,3.85,2.48l1.2-.63c-1-4.26-1.8-8.56-3-12.76-5-17.69-10.15-35.34-15.23-53-1.73-6-.19-12.14,4.06-15.4,4.82,4.56,7.23,10.59,9.64,16.54s4.5,12.13,6.7,18.21c2.15,5.92,4.26,11.85,6.39,17.77-.41-8.72-6.19-16.48-3.34-25.78a9.89,9.89,0,0,1,3.6,3.55c2.81,5.54,5.23,11.29,8.19,16.75,3.18,5.89,6.69,11.61,10.3,17.25,1.16,1.81,3.09,3.14,4.66,4.69l.69-.64a97.49,97.49,0,0,1-4.9-8.66,6.55,6.55,0,0,1-.15-4.71c2.25-5.52,4.63-11,7.37-16.31C465.33,121,468.88,115,472.42,109c.65-1.1,2-1.77,3.08-2.64l1.17.68-3.92,15.69,1.22.33,5.22-10a5.13,5.13,0,0,1,.62,3.46c-1.48,6.29-2.52,12.75-4.74,18.78-3.86,10.47-8.48,20.67-12.8,31-1.64-1.24-3.79-5.63-6.17-.51-3.39,7.31-6.28,14.86-9.25,22.37-.41,1-.05,2.39-.05,3.59l1.48.53c3.81-6.95,7.62-13.91,12-21.83,1.82,5.1,3.27,9.15,4.71,13.21h1.42c1.61-5.23,3.22-10.47,5.1-16.56,2.42,5.43,4.52,10.17,6.63,14.91l1.13-.31c2-11.73-2.83-23.53.5-35.4,3.24-11.55,5.15-23.48,7.65-35.24h.88q7.19,29.17,14.36,58.34l1.07-.13c2.82-5.72,1.21-12.11,2-19,3.94,7.85,7.4,14.87,11,21.83a21,21,0,0,0,2.66,3.35l1.5-.69c-1-5.56-1.47-11.31-3.18-16.65-3-9.23-6.88-18.15-10.08-27.31-1.43-4.09-2.11-8.44-3.13-12.67l1.07-.4c.74,1.09,1.56,2.12,2.21,3.26,3.34,5.84,6.61,11.71,9.94,17.56,4.79,8.43,9.56,16.87,14.46,25.24a24.94,24.94,0,0,0,3.49,3.88l.74-.42c-.13-2.86-.27-5.73-.4-8.6l.79-.25,20,22.88-.49.44-4-2-.82.89c3.83,12.34,13.4,21,21,31.08-1.14-4.37-2.28-8.75-3.69-14.2a56.53,56.53,0,0,0,3.92,5,40,40,0,0,0,5.13,4.25c.54.39,1.56.1,2.36.12a6.72,6.72,0,0,0-.22-2.32,78.56,78.56,0,0,0-4.72-9.23c-8.25-12.6-16.42-25.28-25.08-37.59-7.44-10.59-15.63-20.64-23.29-31.07-9.44-12.85-18.66-25.85-28-38.76-.8-1.1-1.66-2.48-2.81-2.93-1.51-.59-3.84-1.15-4.94-.41-5.36,3.59-10.47,7.56-15.57,11.52-2.95,2.28-5.53,5.07-8.6,7.14-8,5.4-15.41,11.43-21.26,19.19-.74,1-1.39,2-2.57,3.7-2.26-5.44-4.39-9.56-5.71-13.93C432.9,97,423.88,85.07,411.76,75c-4.45-3.69-7.85-8.61-11.93-12.77-3.43-3.51-6.76-7.35-10.83-10-7-4.45-8.61-4.08-13.66,2.59C366,67.3,357,80.05,343.51,88.57a5.94,5.94,0,0,0-.82.77c-8.9,8.54-20.12,14.64-26.8,26.16-1.58-3-2.8-5.45-4.14-7.83-3.66-6.5-7.07-13.17-11.14-19.41-3.79-5.79-5.6-5.71-10.22-.84-1.54,1.63-3.08,3.27-4.46,5-6.1,7.73-11.83,15.77-18.27,23.19C256,129.09,244,142.23,232,155.38c-2.31,2.54-5.23,4.54-7.85,6.8s-5.1,4.26-5.45,8.8l8.08-3.89c-4.33,5.52-9.84,9.88-11.5,17.09,16-6.31,22.69-22.33,35-34.17-.85,2.89-1.39,4.71-2.16,7.34l12.43-16.58Z" transform="translate(-189.35 -29.55)"/><path class="cls-2" d="M260.51,169.31V140.77l-12.43,16.58c.77-2.63,1.31-4.45,2.16-7.34-12.3,11.84-19,27.86-35,34.17,1.66-7.21,7.17-11.57,11.5-17.09L218.67,171c.35-4.54,3-6.65,5.45-8.8s5.54-4.26,7.85-6.8c12-13.15,24-26.29,35.69-39.74,6.44-7.42,12.17-15.46,18.27-23.19,1.38-1.76,2.92-3.4,4.46-5,4.62-4.87,6.43-5,10.22.84,4.07,6.24,7.48,12.91,11.14,19.41,1.34,2.38,2.56,4.82,4.14,7.83,6.68-11.52,17.9-17.62,26.8-26.16a5.94,5.94,0,0,1,.82-.77C357,80.05,366,67.3,375.34,54.89c5.05-6.67,6.68-7,13.66-2.59,4.07,2.6,7.4,6.44,10.83,10,4.08,4.16,7.48,9.08,11.93,12.77,12.12,10,21.14,22,25.72,37.24,1.32,4.37,3.45,8.49,5.71,13.93,1.18-1.7,1.83-2.73,2.57-3.7C451.61,114.73,459,108.7,467,103.3c3.07-2.07,5.65-4.86,8.6-7.14,5.1-4,10.21-7.93,15.57-11.52,1.1-.74,3.43-.18,4.94.41,1.15.45,2,1.83,2.81,2.93,9.35,12.91,18.57,25.91,28,38.76,7.66,10.43,15.85,20.48,23.29,31.07,8.66,12.31,16.83,25,25.08,37.59a78.56,78.56,0,0,1,4.72,9.23,6.72,6.72,0,0,1,.22,2.32c-.8,0-1.82.27-2.36-.12a40,40,0,0,1-5.13-4.25,56.53,56.53,0,0,1-3.92-5c1.41,5.45,2.55,9.83,3.69,14.2-7.63-10.06-17.2-18.74-21-31.08l.82-.89,4,2,.49-.44-20-22.88-.79.25c.13,2.87.27,5.74.4,8.6l-.74.42a24.94,24.94,0,0,1-3.49-3.88c-4.9-8.37-9.67-16.81-14.46-25.24-3.33-5.85-6.6-11.72-9.94-17.56-.65-1.14-1.47-2.17-2.21-3.26l-1.07.4c1,4.23,1.7,8.58,3.13,12.67,3.2,9.16,7.11,18.08,10.08,27.31,1.71,5.34,2.16,11.09,3.18,16.65l-1.5.69a21,21,0,0,1-2.66-3.35c-3.59-7-7-14-11-21.83-.79,6.89.82,13.28-2,19l-1.07.13q-7.19-29.16-14.36-58.34h-.88c-2.5,11.76-4.41,23.69-7.65,35.24-3.33,11.87,1.46,23.67-.5,35.4l-1.13.31c-2.11-4.74-4.21-9.48-6.63-14.91-1.88,6.09-3.49,11.33-5.1,16.56h-1.42c-1.44-4.06-2.89-8.11-4.71-13.21-4.33,7.92-8.14,14.88-12,21.83l-1.48-.53c0-1.2-.36-2.55.05-3.59,3-7.51,5.86-15.06,9.25-22.37,2.38-5.12,4.53-.73,6.17.51,4.32-10.34,8.94-20.54,12.8-31,2.22-6,3.26-12.49,4.74-18.78a5.13,5.13,0,0,0-.62-3.46l-5.22,10-1.22-.33,3.92-15.69-1.17-.68c-1.05.87-2.43,1.54-3.08,2.64-3.54,6-7.09,12-10.27,18.11-2.74,5.29-5.12,10.79-7.37,16.31a6.55,6.55,0,0,0,.15,4.71,97.49,97.49,0,0,0,4.9,8.66l-.69.64c-1.57-1.55-3.5-2.88-4.66-4.69-3.61-5.64-7.12-11.36-10.3-17.25-3-5.46-5.38-11.21-8.19-16.75a9.89,9.89,0,0,0-3.6-3.55c-2.85,9.3,2.93,17.06,3.34,25.78-2.13-5.92-4.24-11.85-6.39-17.77-2.2-6.08-4.27-12.22-6.7-18.21S417.82,93,413,88.48c-4.25,3.26-5.79,9.38-4.06,15.4,5.08,17.67,10.21,35.32,15.23,53,1.19,4.2,2,8.5,3,12.76l-1.2.63a21.84,21.84,0,0,1-3.85-2.48c-4.9-4.81-8.37-10.24-9-17.47-.69-8.05-2-16.06-3.49-24-.63-3.35-2.48-6.47-3.69-9.72-4-10.83-8-21.68-12-32.68-.35,5.71-.71,11.47-1.06,17.23l-1.81.2c-3.53-14.66-7.07-29.31-10.9-45.17-8.83,14.42-17.3,27.69-29.27,39.36,8-2.48,13.07-7.33,18-13.1-.3,1.58-.48,3.2-.93,4.73-2.84,9.67-5.85,19.28-8.55,29a20,20,0,0,0-.08,8.25l14.3-22.61,1.36.54a30.55,30.55,0,0,1-.75,4.72,144,144,0,0,0-7.59,48.1,18.61,18.61,0,0,1-.85,5.88c-.36,1.14-1.55,2-2.37,3-.91-.9-2.35-1.67-2.64-2.74a87.91,87.91,0,0,1-1.93-10.21c-.35-2.43-.39-4.9-.57-7.35l-1-.4-8.82,14.55-1.52-.33c0-6.75-.24-13.51.07-20.24s1.14-13.59,1.78-20.75c-6.2,9.31-10.28,20-20.32,26.79q4.47-18.52,8.95-37l-1.33-.62c-2.41,3.35-5.05,6.57-7.18,10.1-2.9,4.79-5.14,10-8.15,14.7A179.94,179.94,0,0,1,310,145.29c-1.2,1.51-3.22,2.37-4.86,3.53L304,148l2.22-7.37-3.1,1.74-.9-.44c.8-1.9,1.21-4.12,2.46-5.65,4.34-5.32,4.94-10.68,1.15-16.49a9.93,9.93,0,0,1-.61-2.39l3.51,2.67,1.18-.54-5.52-18.25-1.49.18c-2.37,8.44.09,17.74-3.68,25.92l-1,0V109.78l-1.43-.28-14.1,35.72c-3-8.31-1.18-17.14,1.72-25.92l-1-.33c-2,3.63-4.43,7.09-6,10.91-4,10-7.59,20.25-11.43,30.36-1.23,3.23-2.72,6.36-4.09,9.53Z" transform="translate(-189.35 -29.55)"/><path class="cls-1" d="M205,93.17c-.17.24-.37.49-.06.73l.51-.28-.16,1.57h.12l.37-1.91-.51.12.32-.3v0l-.37.17a1.62,1.62,0,0,1,1.73-.61s0,.07-.07.08a1.05,1.05,0,0,0-.61,1.45c.06.12.19.19.29.29.12-.13.34-.26.34-.4a1.66,1.66,0,0,1,1-1.44c-.33.42-1,.75-.47,1.42l-.4.6.11.08c.16-.17.33-.34.48-.51,0,0-.06-.07-.09-.1.36-.23.73-.43,1.07-.69s.44,0,.65.09l-.48.15v.09l.57.14-.64.89.06,0,.39-.54.11,0-.48,1.14.32-.36.08,0a5.42,5.42,0,0,1-.27,1.27,1.43,1.43,0,0,1-.74.48c-.27.11-.6.1-.81.42l.48,0v.09l-.77.42.63.28c-.12.1-.34.21-.33.29s.17.27.24.38l-.59.89.37-.1a.6.6,0,0,0,0,.19c.06.15.1.37.22.43s.29-.09.44-.15,0-.07,0-.08l1.48-.54-.51-.2.59-.28,0,.69.38-.57.08.07a.83.83,0,0,1-.57.67,2.86,2.86,0,0,0-.64.35l-.64.37-.38.23.06.12c.14-.06.28-.11.42-.18a2.39,2.39,0,0,1,1.45-.42c.06,0,.15-.11.22-.16.26.36.19.54-.24.59a2.32,2.32,0,0,0-1.32.33c-.14.11-.46,0-.7,0a3.23,3.23,0,0,1-.42-.09l-.2,1,.76-.26a2.18,2.18,0,0,1,1.08-.1,4.75,4.75,0,0,0,1.16-.1,18.42,18.42,0,0,0-.62,2c-.3,1.56-.54,3.14-.77,4.71-.1.73-.13,1.46-.2,2.19a.35.35,0,0,1-.1.24,12.32,12.32,0,0,1-1.34.82,3.61,3.61,0,0,0-1.24,1l2.35-1.34c-.27.22-.54.45-.82.65s-.56.38-.84.57l.05.09c.52-.31,1-.61,1.54-.94.09-.06.33-.2.05-.37l.24-.2a.61.61,0,0,1-.14.75c-.51.52-1,1.11-1.41,1.67l.09.08.34-.32,0,0L206,115.24l.1.06c.51-.66,1-1.32,1.53-2,.18-.25.34-.48.79-.36a1.14,1.14,0,0,1-.19.4,7.72,7.72,0,0,1-.72.56s-.12,0-.12.09c-.12.66-.8.87-1.11,1.37l-.23.34.1.08,1.82-1.88c.05,0,.11.36.3.08l-.55.65.38-.12.1.07a1.28,1.28,0,0,1-.23.45c-.48.38-1,.73-1.48,1.1a.52.52,0,0,0-.16.12c-.05.11-.08.23-.12.34a1.05,1.05,0,0,0,.31-.12c.41-.33.8-.69,1.2-1a2.45,2.45,0,0,1,.28-.16,4.53,4.53,0,0,1-.2,1.07,2.58,2.58,0,0,0-.07,1.73c.19.85.22.84-.56,1.25L206,120l.27.44c.27.54.53,1.09.83,1.61a.64.64,0,0,0,.44.22c.4.06.81.09,1.21.12v.1l-1.38-.07a4.5,4.5,0,0,0,4.58,1.64c2.55-.61,5.07-1.32,7.59-2,1.32-.38,2.61-.88,3.93-1.3a12.79,12.79,0,0,1,1.26-.27c.23-.05.33,0,.38.28.13.66.14.66.81.61.26,0,.52-.08.79-.09.09,0,.28.13.27.17,0,.27.18.37.28.54a6.45,6.45,0,0,1,.21.62,5.32,5.32,0,0,0,.3.69c.24.44.5.86.8,1.36-.53,0-1,0-1.48.12-1,.17-1.95.35-2.91.59a8.81,8.81,0,0,0-1.71.64c-.38.17-.71.45-1.07.65-.11.1-.2.22-.32.31s-.48,0-.47.38c0,0-.19.07-.28.13s-.23.21-.35.31a.72.72,0,0,1-.22.17c-.27.08-.53.15-.41.51-.3.14-.8,0-.58.61a1.3,1.3,0,0,0-.4.1c-.1.06-.16.2-.24.3s-.13.26-.22.29c-.29.09-.44.23-.3.54-.3.15-.65.22-.55.66,0,0-.07.11-.13.13-.21.1-.46.17-.3.51,0,0-.15.18-.25.25s-.32.19-.2.44c0,.06,0,.21-.11.28a3.83,3.83,0,0,1-.39.25c.28.28.16.45-.09.61-.09.06-.12.2-.18.31l.1.06.24-.18s0,.08,0,.11a7.54,7.54,0,0,0-.63,2.19c-.05.41-.18.81-.27,1.22,0,.05-.05.1-.05.15l.06,1.21a.59.59,0,0,1,0,.22s-.08.09-.08.13c0,.4.09.8.14,1.21,0,0,.07.07.07.09-.17.39.07.74.1,1.12,0,0-.05.1,0,.14.09.37.19.73.3,1.09s.27.84.41,1.25c0,.11.07.22.12.33l.22.54s0,0,0,.07c.22.36.45.71.66,1.06s.4.69.6,1c0,0,0,.05,0,.07l.85.94c.07.07.11.17.18.24s.22.25.33.37l.27.29c.06.07.12.2.2.21.48.09.53.5.68.85,0,.09.21.12.32.18s.31.15.34.26.15.28.36.25.31.05.31.08c0,.39.29.4.58.43a.25.25,0,0,1,.21.14c.1.24.24.26.47.21s.24.1.35.15l0,.13-.47-.08c.41.41.94,0,1.28.27l0,.12-.36,0V152h1.19v.11l-.69.15v.11l1.52-.15v.11l-.72.16v.12l1.09-.1,0,.11-.31.11,0,.1,1.15-.17.09.19-.38,0,.06.18,1.1-.22,0,.05L227,153l.32.18-.19.25c.35.09.47,0,.52-.48a3.29,3.29,0,0,0,1.62-.05c.4-.1.84,0,1.24-.11a20.19,20.19,0,0,0,2.17-.53c.61-.2,1.19-.48,1.84-.74l-.05.49a4.67,4.67,0,0,0,.68-.36c.78-.58,1.56-1.16,2.32-1.77.4-.32.75-.71,1.13-1.05s.9-.78,1.33-1.19a.37.37,0,0,0,.07-.35,1.75,1.75,0,0,1,.54-1.65,5.19,5.19,0,0,0,.91-1.93c.17-.66.35-1.32.48-2s.25-1.52.34-2.28a9,9,0,0,0,0-1.37,9.89,9.89,0,0,0-.11-1.21,17.75,17.75,0,0,0-.85-3.22c0-.16-.25-.26-.34-.41a1.47,1.47,0,0,1-.32-1.55l-.27.25c0-.47.52-.91-.15-1.26l.12-.07.91,0,0,.13-.26.31c.06,0,.11,0,.12,0l1.62-1.57a2.47,2.47,0,0,0,.5-2.2,15.58,15.58,0,0,1,0-2,11.79,11.79,0,0,1,.23-2.15c.16-.64-.05-1.32.31-2a3.44,3.44,0,0,0,.23-1.12,2.78,2.78,0,0,0-.39-.19c-.25-.09-.21-.25-.14-.44.27-.75.54-1.49.78-2.24a.82.82,0,0,0-.65-1c-.37-.08-.81.31-.93.69a4.9,4.9,0,0,1-.49.85c-.15.27-.27.55-.41.82l.16.09.26-.48.08.06c-.16.18-.31.37-.48.55a2.65,2.65,0,0,1-.34.33c-.4.33-.84.63-.62,1.28l-.73-.89a2.09,2.09,0,0,0,.68-.27c.08-.06,0-.33,0-.47l.83-.32,0-.09-.33,0,0-.08c.14-.09.29-.17.44-.25s.31-.22.21-.48c-.65-1.69-1.31-3.36-1.91-5.06-.52-1.49-1-3-1.46-4.51-.41-1.33-.79-2.68-1.12-4a3.17,3.17,0,0,1,.43-2.24.41.41,0,0,1,.48-.23,5.25,5.25,0,0,0,1,0,1.26,1.26,0,0,1,.39,0c1.16.33,2.32.67,3.47,1,.61.19,1.21.44,1.81.66a.68.68,0,0,1,.49.92,4.57,4.57,0,0,0,0,.64c0,.11,0,.21,0,.32,0,.51,0,1,0,1.53a9,9,0,0,0,.32,2.18,8.29,8.29,0,0,0,.44,1.33c0,.1,0,.21,0,.31s.14.35.22.52.11.12.12.19a3.21,3.21,0,0,0,.66,1.2c.27.39.51.81.78,1.21a5.23,5.23,0,0,0,.74,1.09c.43.39.67,1.09,1.43,1h.11c0-.33-.14-.36-.54-.1l.14-.43.57.29c.14.2.22.47.33.48.52.06.45.45.55.78a1.45,1.45,0,0,0,.41.56c0-.25-.14-.49.16-.69l0,.59.21-.11c-.29.47-.25.57.29.73.16,0,.33,0,.49.08h0a1.76,1.76,0,0,0,1.19.76.83.83,0,0,1,.78.81c.34-.61.86,0,1.25-.3l-.17-.17a2.4,2.4,0,0,0,1.73,0l.39.37-.27.28c.54.06,1,.13,1.45.16.1,0,.22-.1.32-.17.42-.26.83.13,1.26,0s.73-.15,1.09-.22c.06,0,.13-.06.18,0,.61.1,1.07-.32,1.62-.42a3.51,3.51,0,0,0,.65-.09,10.22,10.22,0,0,0,2.25-1c.38-.26.7-.68,1.26-.63.09,0,.21-.17.3-.27.41-.41.84-.8,1.22-1.24s.87-1.07,1.29-1.61a5.7,5.7,0,0,0,.58-.81c.33-.63.58-1.29.92-1.91a19.81,19.81,0,0,0,1-3.42,5.4,5.4,0,0,0,.07-1.4c0-.4,0-.8,0-1.2a4.71,4.71,0,0,0-.16-1.62,7,7,0,0,1-.2-1.24,4.41,4.41,0,0,0-.27-.85c-.16-.41-.33-.81-.51-1.21s-.29-.6-.44-.9-.42-.82-.68-1.2-.61-.78-.92-1.17-.39-.55-.59-.83c0,0,0,0,0-.06-.58-.27-.85-.85-1.31-1.25a.62.62,0,0,0-.28-.09c-.25,0-.46-.11-.49-.41a.28.28,0,0,0-.15-.17c-.82-.4-1.63-.8-2.46-1.17a9.11,9.11,0,0,0-1.57-.61c-.28-.08-.63.08-.84-.27,0,0-.12,0-.18,0a1.12,1.12,0,0,1-.49,0c-.2-.1-.35-.29-.56,0,0,0-.1,0-.14,0a4.3,4.3,0,0,0-2.32-.28,14.92,14.92,0,0,0-2.09.34,11.81,11.81,0,0,0-1.32.25c-.44.13-.84.36-1.28.49a2.27,2.27,0,0,1-.69,0c-.3.48-.91.62-1.41.93a12.24,12.24,0,0,0-1,.7,9.36,9.36,0,0,0-.81.73,18,18,0,0,0-1.65,1.62,15.8,15.8,0,0,0-1.2,1.88c-.19.3-.35.62-.53.92s-.29.22-.52.09a10.1,10.1,0,0,1-3.79-3.83,7.65,7.65,0,0,0-1.15-1.4,2.49,2.49,0,0,0-3.1-.54c-.51.23-1,.47-1.52.68a.63.63,0,0,1-.49-.06l-.38.37-.16-1.78-.18,0-.53.84c-.52-.3-1-.6-1.48-.85a5.14,5.14,0,0,1-1.7-.93c-.06-.07-.31,0-.43,0-.56.32-1.1.67-1.66,1-.33.18-.69.32-1,.49-.07-.43-.11-.44-.44-.23a1.64,1.64,0,0,1-.61.21c-.32,0-1.09.62-1.14.94a.87.87,0,0,1-.65.7c-1,.39-2,.8-3,1.24-.42.19-.79.51-1.21.72a5.07,5.07,0,0,1-1.2.47c-1,.23-2.09.41-3.15.58-.16,0-.34-.13-.52-.19L215,97.65l-.27-.09c.42-.33.8-.63,1.19-.92a.66.66,0,0,0,.08-1.15.79.79,0,0,1-.23-.35c0-.35-.2-.5-.55-.42,0-.34.15-.66-.2-.91-.05,0,0-.26,0-.36.25-.49.19-.56-.28-.8-.25-.12-.41-.43-.61-.65,0,0-.08-.11-.15,0a1.86,1.86,0,0,1-.55-.16c-.05,0,0-.32.08-.44.32-.51.88-.84,1-1.48,0-.14.08-.27.13-.48-.7.09-1.34.16-2,.26-.2,0-.32.09-.49-.13s-.46-.21-.71-.25a5.87,5.87,0,0,0-4.6,1.44l-.08.08s0,0,0,.07l.51,0,.05.15-.79.28.09-.29-.11-.08L205,92.62l5.47-17.45,67.43,21.15-21.15,67.43L189.35,142.6,205,92.84C205.25,92.91,205.1,93,205,93.17Zm1.9,11.17a.77.77,0,0,1-.27.48c-.3.22-.6.41-.65.83,0,.23-.13.46-.14.71a3.5,3.5,0,0,0,.14-.46.73.73,0,0,1,.78-.61.7.7,0,0,0,.29-.08c.52-.34,1-.7,1.55-1.06a.23.23,0,0,0,.12-.19c-.23.07-.47.12-.69.2-.41.14-.56,0-.68-.38-.05-.18-.27-.32-.41-.48l.17-1c-.3.26-.3.26-.16,1A9.23,9.23,0,0,1,206.91,104.34Zm.55-9.66a1,1,0,0,0,.46,1.64,6.83,6.83,0,0,0,.17-1.24,1.77,1.77,0,0,1,.52-1.24l-.08-.07A10.47,10.47,0,0,0,207.46,94.68Zm.43,12.48a1,1,0,0,1-.9-.12.32.32,0,0,0-.33,0,.4.4,0,0,0-.14.33c0,.06.17.11.27.16.61.3,1.07-.08,1.55-.32l0-.13C208.17,107.11,208,107.12,207.89,107.16Zm1.24-5c-.07-.1-.12-.26-.21-.27s-.23.07-.31.15,0,.15.1.28Zm-3.06-6.21c.09,0,.22,0,.25-.11s0-.2-.07-.27-.17,0-.23,0a4.56,4.56,0,0,0-.42.31A2.54,2.54,0,0,0,206.07,95.91ZM250.62,116c-.06,0-.16.21-.15.23s.3.27.45.41l.1-.12C250.75,116.43,251.07,115.92,250.62,116Zm-44-.26c-.46.14-.56.51-.66.89Zm-.42-19.24.39.39.11-.13C206.63,96.56,206.64,96.27,206.19,96.49Z" transform="translate(-189.35 -29.55)"/><path class="cls-2" d="M207.48,94c-.49-.67.14-1,.47-1.42a1.66,1.66,0,0,0-1,1.44c0,.14-.22.27-.34.4-.1-.1-.23-.17-.29-.29a1.05,1.05,0,0,1,.61-1.45s0,0,.07-.08a1.62,1.62,0,0,0-1.73.61l.37-.17v0l-.32.3.51-.12-.37,1.91h-.12l.16-1.57-.51.28c-.31-.24-.11-.49.06-.73s.24-.26,0-.33l.07-.22L206.52,91l.11.08-.09.29.79-.28-.05-.15-.51,0s0,0,0-.07l.08-.08a5.87,5.87,0,0,1,4.6-1.44c.25,0,.58.08.71.25s.29.17.49.13c.64-.1,1.28-.17,2-.26-.05.21-.1.34-.13.48-.13.64-.69,1-1,1.48-.07.12-.13.4-.08.44A1.86,1.86,0,0,0,214,92c.07-.06.11,0,.15,0,.2.22.36.53.61.65.47.24.53.31.28.8-.05.1-.07.32,0,.36.35.25.24.57.2.91.35-.08.51.07.55.42a.79.79,0,0,0,.23.35.66.66,0,0,1-.08,1.15c-.39.29-.77.59-1.19.92l.27.09,1.68.53c.18.06.36.21.52.19,1.06-.17,2.11-.35,3.15-.58a5.07,5.07,0,0,0,1.2-.47c.42-.21.79-.53,1.21-.72,1-.44,2-.85,3-1.24a.87.87,0,0,0,.65-.7c.05-.32.82-.89,1.14-.94a1.64,1.64,0,0,0,.61-.21c.33-.21.37-.2.44.23.35-.17.71-.31,1-.49.56-.32,1.1-.67,1.66-1,.12-.06.37-.09.43,0a5.14,5.14,0,0,0,1.7.93c.49.25,1,.55,1.48.85l.53-.84.18,0,.16,1.78.38-.37a.63.63,0,0,0,.49.06c.52-.21,1-.45,1.52-.68a2.49,2.49,0,0,1,3.1.54,7.65,7.65,0,0,1,1.15,1.4,10.1,10.1,0,0,0,3.79,3.83c.23.13.38.13.52-.09s.34-.62.53-.92a15.8,15.8,0,0,1,1.2-1.88,18,18,0,0,1,1.65-1.62,9.36,9.36,0,0,1,.81-.73,12.24,12.24,0,0,1,1-.7c.5-.31,1.11-.45,1.41-.93a2.27,2.27,0,0,0,.69,0c.44-.13.84-.36,1.28-.49a11.81,11.81,0,0,1,1.32-.25,14.92,14.92,0,0,1,2.09-.34,4.3,4.3,0,0,1,2.32.28s.12,0,.14,0c.21-.25.36-.06.56,0a1.12,1.12,0,0,0,.49,0c.06,0,.17,0,.18,0,.21.35.56.19.84.27a9.11,9.11,0,0,1,1.57.61c.83.37,1.64.77,2.46,1.17a.28.28,0,0,1,.15.17c0,.3.24.37.49.41a.62.62,0,0,1,.28.09c.46.4.73,1,1.31,1.25,0,0,0,0,0,.06.2.28.39.56.59.83s.65.76.92,1.17.46.8.68,1.2.3.6.44.9.35.8.51,1.21a4.41,4.41,0,0,1,.27.85,7,7,0,0,0,.2,1.24,4.71,4.71,0,0,1,.16,1.62c0,.4,0,.8,0,1.2a5.4,5.4,0,0,1-.07,1.4,19.81,19.81,0,0,1-1,3.42c-.34.62-.59,1.28-.92,1.91a5.7,5.7,0,0,1-.58.81c-.42.54-.83,1.09-1.29,1.61s-.81.83-1.22,1.24c-.09.1-.21.28-.3.27-.56-.05-.88.37-1.26.63a10.22,10.22,0,0,1-2.25,1,3.51,3.51,0,0,1-.65.09c-.55.1-1,.52-1.62.42-.05,0-.12,0-.18,0-.36.07-.73.12-1.09.22s-.84-.29-1.26,0c-.1.07-.22.18-.32.17-.46,0-.91-.1-1.45-.16l.27-.28-.39-.37a2.4,2.4,0,0,1-1.73,0l.17.17c-.39.3-.91-.31-1.25.3a.83.83,0,0,0-.78-.81,1.76,1.76,0,0,1-1.19-.76l-.24-.86-.36.51.61.35c-.16,0-.33,0-.49-.08-.54-.16-.58-.26-.29-.73l-.21.11,0-.59c-.3.2-.13.44-.16.69a1.45,1.45,0,0,1-.41-.56c-.1-.33,0-.72-.55-.78-.11,0-.19-.28-.33-.48l-.57-.29-.14.43c.4-.26.49-.23.54.1h-.11c-.76.06-1-.64-1.43-1a5.23,5.23,0,0,1-.74-1.09c-.27-.4-.51-.82-.78-1.21a3.21,3.21,0,0,1-.66-1.2c0-.07-.08-.12-.12-.19s-.16-.35-.22-.52,0-.21,0-.31a8.29,8.29,0,0,1-.44-1.33,9,9,0,0,1-.32-2.18c0-.51,0-1,0-1.53,0-.11,0-.21,0-.32a4.57,4.57,0,0,1,0-.64.68.68,0,0,0-.49-.92c-.6-.22-1.2-.47-1.81-.66-1.15-.36-2.31-.7-3.47-1a1.26,1.26,0,0,0-.39,0,5.25,5.25,0,0,1-1,0,.41.41,0,0,0-.48.23,3.17,3.17,0,0,0-.43,2.24c.33,1.35.71,2.7,1.12,4,.46,1.51.94,3,1.46,4.51.6,1.7,1.26,3.37,1.91,5.06.1.26,0,.38-.21.48s-.3.16-.44.25l0,.08.33,0,0,.09-.83.32c0,.14.12.41,0,.47a2.09,2.09,0,0,1-.68.27l.73.89c-.22-.65.22-1,.62-1.28a2.65,2.65,0,0,0,.34-.33c.17-.18.32-.37.48-.55l-.08-.06-.26.48-.16-.09c.14-.27.26-.55.41-.82a4.9,4.9,0,0,0,.49-.85c.12-.38.56-.77.93-.69a.82.82,0,0,1,.65,1c-.24.75-.51,1.49-.78,2.24-.07.19-.11.35.14.44a2.78,2.78,0,0,1,.39.19,3.44,3.44,0,0,1-.23,1.12c-.36.63-.15,1.31-.31,2a11.79,11.79,0,0,0-.23,2.15,15.58,15.58,0,0,0,0,2,2.47,2.47,0,0,1-.5,2.2L241.22,131s-.06,0-.12,0l.26-.31,0-.13-.91,0-.12.07c.67.35.13.79.15,1.26l.27-.25a1.47,1.47,0,0,0,.32,1.55c.09.15.29.25.34.41a17.75,17.75,0,0,1,.85,3.22,9.89,9.89,0,0,1,.11,1.21,9,9,0,0,1,0,1.37c-.09.76-.2,1.53-.34,2.28s-.31,1.33-.48,2a5.19,5.19,0,0,1-.91,1.93,1.75,1.75,0,0,0-.54,1.65.37.37,0,0,1-.07.35c-.43.41-.89.79-1.33,1.19s-.73.73-1.13,1.05c-.76.61-1.54,1.19-2.32,1.77a4.67,4.67,0,0,1-.68.36l.05-.49c-.65.26-1.23.54-1.84.74a20.19,20.19,0,0,1-2.17.53c-.4.08-.84,0-1.24.11a3.29,3.29,0,0,1-1.62.05c-.05.45-.17.57-.52.48l.19-.25L227,153l.29-.19,0-.05-1.1.22-.06-.18.38,0-.09-.19-1.15.17,0-.1.31-.11,0-.11-1.09.1v-.12l.72-.16v-.11l-1.52.15v-.11l.69-.15V152h-1.19v-.14l.36,0,0-.12c-.34-.29-.87.14-1.28-.27l.47.08,0-.13c-.11,0-.24-.17-.35-.15s-.37,0-.47-.21a.25.25,0,0,0-.21-.14c-.29,0-.56,0-.58-.43,0,0-.2-.09-.31-.08s-.29,0-.36-.25-.22-.18-.34-.26-.28-.09-.32-.18c-.15-.35-.2-.76-.68-.85-.08,0-.14-.14-.2-.21l-.27-.29c-.11-.12-.23-.24-.33-.37s-.11-.17-.18-.24l-.85-.94s0,0,0-.07c-.2-.35-.39-.7-.6-1s-.44-.7-.66-1.06c0,0,0-.05,0-.07l-.22-.54c0-.11-.08-.22-.12-.33-.14-.41-.28-.83-.41-1.25s-.21-.72-.3-1.09c0,0,0-.1,0-.14,0-.38-.27-.73-.1-1.12,0,0-.06-.06-.07-.09-.05-.41-.1-.81-.14-1.21,0,0,.07-.09.08-.13a.59.59,0,0,0,0-.22l-.06-1.21c0-.05,0-.1.05-.15.09-.41.22-.81.27-1.22a7.54,7.54,0,0,1,.63-2.19s0-.07,0-.11l-.24.18-.1-.06c.06-.11.09-.25.18-.31.25-.16.37-.33.09-.61a3.83,3.83,0,0,0,.39-.25c.06-.07.14-.22.11-.28-.12-.25.05-.33.2-.44s.27-.21.25-.25c-.16-.34.09-.41.3-.51.06,0,.14-.1.13-.13-.1-.44.25-.51.55-.66-.14-.31,0-.45.3-.54.09,0,.15-.19.22-.29s.14-.24.24-.3a1.3,1.3,0,0,1,.4-.1c-.22-.59.28-.47.58-.61-.12-.36.14-.43.41-.51a.72.72,0,0,0,.22-.17c.12-.1.23-.22.35-.31s.28-.09.28-.13c0-.34.32-.26.47-.38s.21-.21.32-.31c.36-.2.69-.48,1.07-.65a8.81,8.81,0,0,1,1.71-.64c1-.24,1.94-.42,2.91-.59.47-.08,1-.08,1.48-.12-.3-.5-.56-.92-.8-1.36a5.32,5.32,0,0,1-.3-.69,6.45,6.45,0,0,0-.21-.62c-.1-.17-.32-.27-.28-.54,0,0-.18-.17-.27-.17-.27,0-.53.07-.79.09-.67.05-.68.05-.81-.61-.05-.23-.15-.33-.38-.28a12.79,12.79,0,0,0-1.26.27c-1.32.42-2.61.92-3.93,1.3-2.52.72-5,1.43-7.59,2a4.5,4.5,0,0,1-4.58-1.64l1.38.07v-.1c-.4,0-.81-.06-1.21-.12a.64.64,0,0,1-.44-.22c-.3-.52-.56-1.07-.83-1.61L206,120l1.22-.64c.78-.41.75-.4.56-1.25a2.58,2.58,0,0,1,.07-1.73,4.53,4.53,0,0,0,.2-1.07,2.45,2.45,0,0,0-.28.16c-.4.34-.79.7-1.2,1a1.05,1.05,0,0,1-.31.12c0-.11.07-.23.12-.34a.52.52,0,0,1,.16-.12c.49-.37,1-.72,1.48-1.1a1.28,1.28,0,0,0,.23-.45l-.1-.07-.38.12.55-.65c-.19.28-.25-.07-.3-.08l-1.82,1.88-.1-.08.23-.34c.31-.5,1-.71,1.11-1.37,0,0,.08-.06.12-.09a7.72,7.72,0,0,0,.72-.56,1.14,1.14,0,0,0,.19-.4c-.45-.12-.61.11-.79.36-.5.67-1,1.33-1.53,2l-.1-.06,1.39-2.18,0,0-.34.32-.09-.08c.46-.56.9-1.15,1.41-1.67a.61.61,0,0,0,.14-.75l-.24.2h0l-2.35,1.34a3.61,3.61,0,0,1,1.24-1,12.32,12.32,0,0,0,1.34-.82.35.35,0,0,0,.1-.24c.07-.73.1-1.46.2-2.19.23-1.57.47-3.15.77-4.71a18.42,18.42,0,0,1,.62-2,4.75,4.75,0,0,1-1.16.1,2.18,2.18,0,0,0-1.08.1l-.76.26.2-1a3.23,3.23,0,0,0,.42.09c.24,0,.56.1.7,0a2.32,2.32,0,0,1,1.32-.33c.43,0,.5-.23.24-.59-.07,0-.16.17-.22.16a2.39,2.39,0,0,0-1.45.42c-.14.07-.28.12-.42.18l-.06-.12.38-.23.64-.37a2.86,2.86,0,0,1,.64-.35.83.83,0,0,0,.57-.67l-.08-.07-.38.57,0-.69-.59.28.51.2-1.48.54s0,.07,0,.08-.34.2-.44.15-.16-.28-.22-.43a.6.6,0,0,1,0-.19l-.37.1.59-.89c-.07-.11-.22-.24-.24-.38s.21-.19.33-.29l-.63-.28.77-.42v-.09l-.48,0c.21-.32.54-.31.81-.42a1.43,1.43,0,0,0,.74-.48,5.42,5.42,0,0,0,.27-1.27l-.08,0-.32.36.48-1.14-.11,0-.39.54-.06,0,.64-.89-.57-.14v-.09l.48-.15c-.21-.13-.39-.29-.65-.09s-.71.46-1.07.69Zm29.89,50.36-.57-.17.33.54a1.1,1.1,0,0,1-.29-.11c-.22-.2-.4-.2-.59,0s-.21.25-.32.37a3.88,3.88,0,0,0,.58.42c.07,0,.26-.11.34-.21a2.49,2.49,0,0,0,.27-.51Zm-4.14,2.35c.33-.4.67-.79,1-1.22l-.31-.34c-.35.33-.7.64-1,1s-.2.61.24.83c-.11.42.16.17.28.16a2.2,2.2,0,0,1-.51.5.49.49,0,0,0-.27.66l-.76.25c-.07-.28.25-.38.36-.58s.33-.65.47-1c0-.06-.09-.18-.18-.33l-.54.81-.14-.08c.14-.23.28-.46.4-.7a1,1,0,0,0,.09-.3,2.36,2.36,0,0,0-.28,0c-.48,0-1,.18-1.2-.57l-.1.1c.11.43.23.86.33,1.29s.21.91.34,1.36a1.59,1.59,0,0,0,.24.47,3.31,3.31,0,0,0,.78-.38c.09-.06.12-.22.18-.33l.9-.85.09.08-.46.76s.07.05.08,0q1-.65,1.95-1.32a1.31,1.31,0,0,0,.27-.37.85.85,0,0,1,.06-.13c.42.09.45-.37.72-.48-.26-.64-.43-.74-.87-.5l.17-.48-.08-.06-.73.63.7.8-.44-.06-.25-.42a1.55,1.55,0,0,0-.27.23c-.18.27-.34.56-.52.84-.08.12-.18.21-.34.41l0-.33-.22.07.41-.42,0-.06-.67.32A.66.66,0,0,1,233.23,146.74Zm20.35-43.15c-.3,0-.6-.1-.9-.14-.64-.09-.67-.07-1,.53-.07.14-.13.28-.19.43.29.18.58.32.82,0a2.4,2.4,0,0,1,2.15-.69l-.41-.26-1-.39c.22.41.61.37,1,.39A1.87,1.87,0,0,1,253.58,103.59Zm-20.15,34.17.3-1c-.37.11-.74.06-1,.41a1.42,1.42,0,0,0-.4-.08,6,6,0,0,0-.68.11,2,2,0,0,1,.34,1.45,1.63,1.63,0,0,0,1.11-.07c.15-.13.06-.59-.14-.69-.53-.26-.53-.26-.22-.75Zm-.1-42.59c-.07.36,0,.48.31.44l-.13.13c.36.38,0,.75,0,1.12.58.21,1.24.22,1.53-.41.13-.28.34-.53.47-.81a2.21,2.21,0,0,0,.11-.56c-.6.22-1.22,0-1.7.39Zm29.49,20.15a1.94,1.94,0,0,0-.23.26l-.24.21c.63.06,1-.29,1-.76l.41.31,1.64-.81-.06-.12-.51.24-.52.22.08-.25c.14-.07.27-.11.27-.14a.64.64,0,0,1,.5-.63c.07,0,.11-.1.19-.19.3.4.51,0,.77-.1l.08.1-.44.45.07.08c.18-.18.54-.39.51-.53a3.45,3.45,0,0,0-.55-1c-.26.31-.44.54-.63.75a.34.34,0,0,1-.21.13c-.19,0-.39,0-.57,0,0,0,0,0,0-.07,0-.24.22-.55-.11-.68-.11,0-.34.22-.51.34l-.45.36c-.44.38-.44.42-.05,1,.11-.56.25-1,.93-1.08-.09.15-.17.29-.24.43l-.63,1.12A5.05,5.05,0,0,0,262.82,115.32Zm-.35-1.18c.06-.08.12-.23.09-.29-.53-1-1.08-2-1.62-3,0,0-.06,0-.14-.11l.17,1.57.4,0c0,.09,0,.17-.08.19-.3.16-.28.4-.23.7.11.71.16,1.42.25,2.18l.57-.36c-.1.14-.2.3-.32.44s-.38.41-.15.59a.68.68,0,0,0,.67-.08,8.66,8.66,0,0,0,.8-1.23.33.33,0,0,0,0-.22c0-.08-.07-.19-.14-.21s-.15.06-.21.11l-.66.6C262.07,114.68,262.28,114.42,262.47,114.14Zm2.27-3.85-.46-.23-.07-.26c-.32.19-.4.38-.16.67l-.88.64.65.82.76-.83.1.07-.43.66s.09,0,.1,0c.25-.25.48-.52.74-.75a.34.34,0,0,0,0-.56c.43.27.43.27.69-.17a.68.68,0,0,1,.18-.2l.64-.45-.07-.11-.4.24.25-.44c-.27-.4-1.43-1-1.65-.9-.07-.12-.11-.32-.2-.35s-.28,0-.38.14-.4.44-.63.69l.84.77.22-.19c-.21.53.38.64.51,1C265,110.45,264.88,110.36,264.74,110.29Zm-28.63-15c-.71.87-.32,1.9-.53,2.85l.16,0,.09-.54.1.58.4.09-.19.18v.1c.74-.32,1.32.2,2,.35a2.59,2.59,0,0,0,.16-1.55,3.82,3.82,0,0,0-.92-2A1.48,1.48,0,0,0,237,95c-.47-.29-.72-.15-.78.39,0,.32-.1.65-.14,1ZM236,140.6c-.06.12-.11.24-.17.35a.79.79,0,0,0-.15.37c.08,0,.19,0,.24-.1.18-.21.33-.44.51-.65a1.45,1.45,0,0,1,.34-.23c.17.26-.06.4-.2.45-.38.14-.28.47-.31.72,0,.07.29.17.45.27l.42.26-.34.08a.47.47,0,0,0-.22.12c-.17.26-.32.53-.49.79a.74.74,0,0,1-.12.13l-.11-.08.7-1.17c-.27-.12-.58-.28-.9-.4,0,0-.19.09-.23.17-.16.29-.3.6-.44.9s0,.51.31.67a1.3,1.3,0,0,1,.33.23.49.49,0,0,0,.81,0,4.4,4.4,0,0,1,.82-.79l-1,1.45,1.31-.06.25-.42-.39.07.1-.09a3.66,3.66,0,0,0,.44-.44c.23-.32.12-.51-.25-.66a3.57,3.57,0,0,1-.64-.46,7.81,7.81,0,0,0,.81.29c.13,0,.29-.05.43-.08-.18-.37.32-.56.23-.94l-.34.13c.2-.38.69-.56.48-1.05l-.93,1c-.1-.55.46-.61.62-1l-.27,0,0-.11a3.05,3.05,0,0,1,.41,0c.28,0,.28,0,.21-.29a.21.21,0,0,1,0-.15,1.47,1.47,0,0,0,.23-1.3.59.59,0,0,1,0-.2l-1,.87.44-1c-.33-.08-.42.14-.48.35a3.16,3.16,0,0,1-1,1.34c-.12-.28-.08-.48.21-.6a1.15,1.15,0,0,0,.63-1c-.38-.17-.6.07-.76.35-.25.46-.46.94-.74,1.51l1.69.11v.14l-.48,0-.72,0C236.3,140.14,236.25,140.16,236,140.6Zm-4.59,8.59c-.05-.37,0-.71-.39-.69l-.6.85c0-.34,0-.68.1-1,0-.09.17-.18.27-.22s.32-.19.26-.47c-.36-1.47-.69-2.94-1-4.41-.11-.49-.23-.56-.73-.54a.62.62,0,0,1-.21-.08l.14,7,1.2-.28Zm35.85-39.34-1.5,1c.31.63.51.66,1,.29.2-.16.32-.52.71-.32.08,0,.29-.19.53-.36-.12.18-.16.31-.25.37-.31.23-.43.73-1,.68,0,0-.07.23,0,.31a2.92,2.92,0,0,1,.28.53l-.91-.62-.3.27-.05,0,.27-.43-.3-.31a7,7,0,0,1-.52.55c-.13.1-.18.47-.46.17l-.38.52.39.25s0,0,0,.18l.42-.35-.08.33c.18-.12.36-.17.43-.29.17-.29.33-.18.49,0a1.51,1.51,0,0,1,.21.23c.49.61.61.61,1.09,0-.17-.16-.26-.28,0-.43a1.87,1.87,0,0,0,1-.93l-.34.07s.05-.07.08-.08a1.78,1.78,0,0,0,.68-.73,10.5,10.5,0,0,0,1-2.75,1.44,1.44,0,0,0,0-.66c-.3.29-.61.57-.9.87,0,0,.06.19.09.27l-.82.25-.28-.29-.63,1.47ZM237.4,137.28c.24-.61.6-1.18.9-1.78a1.82,1.82,0,0,0,.07-.44l.52,1a1.31,1.31,0,0,0,0-1.29.28.28,0,0,0-.18-.06c-.34.05-.54-.11-.67-.46v.54H238l-.33-.53-3.07,1.11.25.94.64,0h0a1,1,0,0,1-.18.13c-.36.11-.67.22-.67.71,0,.18-.23.36-.34.55a6.75,6.75,0,0,0-.39.69.51.51,0,0,0,.28.16c.65-.05,1.3-.13,1.95-.21-.67.14-1.33.29-2,.42s-.53.1-.42.63a4.66,4.66,0,0,1,0,.56h.63l-.38-.19.71-.49c.06.16.11.34.17.51s0,.2.09.24a.91.91,0,0,0,1.19-.28c.21-.44.44-.88.68-1.36l-.73,0A1.5,1.5,0,0,0,237.4,137.28Zm17-25.95a5.35,5.35,0,0,0,1.6-2,2.3,2.3,0,0,1,.37-.49l0,.44.65-.65-.07-.13-1,0,.3-.25a1.3,1.3,0,0,1-.39-.17.67.67,0,0,1-.26-.34,1,1,0,0,0-.87-.81c0-.06,0-.16,0-.17-.39-.14-.78-.25-1.16-.39l-1.4-.52-3.3-1.2a1.4,1.4,0,0,0-.24-.06,9.36,9.36,0,0,0,.62,4.69c0,.11.24.17.36.26-.28.08-.16.28-.08.41.45.75.89,1.51,1.38,2.24a7.12,7.12,0,0,0,.78.88c.32.33.43.33.79,0,.13-.11.28-.2.41-.29,0,.13-.25.3.05.39l-.23.61h-.15a5.42,5.42,0,0,0,1.53,1,5.56,5.56,0,0,1,.16-.76c.13-.39.3-.77.45-1.15a2.6,2.6,0,0,0,.23-.62,3.07,3.07,0,0,1,.56-1.76s0-.1,0-.21c-.48.49-1,1-1.43,1.48-.1.12,0,.36-.1.53s-.16.18-.24.28l-.26-.23-.57.4C253.47,112.33,253.94,111.81,254.44,111.33Zm-27.08-11a8.63,8.63,0,0,0-1.5.92c-.51.36-1,.81-1.51,1.13a14.91,14.91,0,0,1-3.54,1.79,8.68,8.68,0,0,1-1.91.23c-.69,0-1.39,0-2.13,0a5.88,5.88,0,0,1,.09.6,1.59,1.59,0,0,1,0,.62c-.33.74-.69,1.47-1.07,2.19-.19.35-.5.65-.69,1a4.61,4.61,0,0,0-.22.83c-.17.61-.37,1.21-.53,1.82a2,2,0,0,0,0,.65c0,.31,0,.62,0,.92a8.43,8.43,0,0,1,1-.63c1.46-.7,2.94-1.36,4.41-2,.3-.13.6-.27.91-.39s.6-.32.79.17c0,.07.32.08.48.06.87-.14,1.74-.3,2.6-.46a2,2,0,0,1,1.79.63c.48.47.94,1,1.42,1.43a1.76,1.76,0,0,0,.45.32,15.68,15.68,0,0,1,3.29,2.3s.07,0,.14.06a2.71,2.71,0,0,0,.55-1.52c.07-1.74.12-3.47.2-5.21.07-1.47.1-2.95.29-4.41a19.82,19.82,0,0,1,.77-2.81,3.83,3.83,0,0,1,.22-.56c.18-.4-.13-.63-.34-.85s-.44-.13-.51.16-.22.29-.44.28a2.51,2.51,0,0,0-1,0c-.55.23-1.07,0-1.6,0-.37,0-.75.08-1.13.09a2.94,2.94,0,0,1-.58-.1C228.1,100.17,227.72,100.19,227.36,100.35Zm-6.62,40.76c.72.07,1.44.15,2.16.18a2.75,2.75,0,0,0,1.55-1.21,1.54,1.54,0,0,0-.09-.52l-.4.11,0-.07.39-.13,0-.75c.15-.07.21-.22-.07-.42.2-.13.42-.25.17-.43l.42-1,.9-1.12c.13,0,.34-.08.35-.13,0-.45.4-.45.73-.58l-.07-.32c.09-.07.25-.13.3-.24a11,11,0,0,0,.89-1.83,13.31,13.31,0,0,0,.32-2c.12-.87.24-1.73.37-2.63a11.67,11.67,0,0,0-3.36.4,10.81,10.81,0,0,0-7.59,8.19,10.1,10.1,0,0,0-.15,3.34.59.59,0,0,0,.53.61c.44.08.87.23,1.31.31a12.83,12.83,0,0,0,1.31.14S220.69,141.11,220.74,141.11ZM235,109a2.35,2.35,0,0,0,.24.54c.16.19.32.43.64.35s.52.14.62.44.28.73.43,1.1.14.5.51.46c.09,0,.22.2.31.32a2.81,2.81,0,0,0,.38.49c0-.1,0-.2-.07-.29-.76-2.53-1.53-5-2.26-7.57-.21-.72-.33-1.47-.49-2.2-.05-.24-.11-.54-.39-.5a.81.81,0,0,0-.47.44,2.16,2.16,0,0,0-.31,1c.06.62-.32,1.12-.36,1.7-.1,1.19-.22,2.39-.22,3.58s-.24,2.41-.25,3.62c0,.51-.09,1-.12,1.53a2.33,2.33,0,0,0,.06.35,1.91,1.91,0,0,1,0,.48c-.08.29-.23.55-.3.84a.6.6,0,0,0,.15.41,16.41,16.41,0,0,0,3.12,2.7s0,0,.06,0a1.66,1.66,0,0,1,1,.32s.15,0,.22,0c.46-.19.46-.2.77.16a3.87,3.87,0,0,0,2.21-.79l.15.13c.33,0,.3-.38-.07-1.41l-.51.31-.46-1.11a2.34,2.34,0,0,1-.19.3c-.11.12-.22.28-.36.33-.57.21-1.15.39-1.73.57s-.62.09-.83-.37-.44-.93-.62-1.41a2.29,2.29,0,0,0-.74-1,2.81,2.81,0,0,1-.31-.37l.43,0s0,0,0-.06c-.35-1-.71-2.1-1.07-3.15-.07-.23-.16-.46.1-.63a.73.73,0,0,0,.27-.86c0-.18-.07-.36-.11-.55Zm4.77,15.12a1.59,1.59,0,0,0,.23-.81c0-.49.18-.63.61-.93a2.32,2.32,0,0,0,1.13-1.37,4.36,4.36,0,0,1,.52-1.11.86.86,0,0,0,.05-.19l-1.36,1.68-1.86,2.34c-.05,0-.08.12-.14.15l-.45.21.1-.45-.55.09.55-.52-.06-.08a3.45,3.45,0,0,0-.41.25.43.43,0,0,1-.66,0c-.08-.12,0-.41.12-.6s.27-.46.4-.69-.1-.73,0-1.09l.66.46a6.54,6.54,0,0,0,.21.77,2.1,2.1,0,0,0,.49-.09c-.25-.28-.25-.47.06-.62s.55-.28.82-.42v-.11a8,8,0,0,0-1.1.24c-.2.06-.32.2-.47-.1s-.47-.1-.45-.48l.28.21c.22,0,.48-.48.37-.78l.28.12c.13-.14-.13-.45-.37-.43a.41.41,0,0,0-.26.19,2,2,0,0,0-.15.45l-.28-.33h-.13c0,.25-.1.51-.12.77s0,.71,0,1.06c-.1.64-.52,1-1,.78l-.1-.1.53-.08c-.21-.45,0-1-.58-1.34-.1.4-.28.26-.5.08s-.69-.52-1-.78a.6.6,0,0,1-.16-.22c-.21-.42-.65-.54-.89-.17s-.55.21-.85.13l-.36-.09c.11-.55,0-.73-.59-1a7.24,7.24,0,0,1-.73-.38c-.46-.26-.93-.51-1.37-.79a6.17,6.17,0,0,1-1.5-1.68,6.33,6.33,0,0,0-.57-.69,7.32,7.32,0,0,1-1.2-1.91.81.81,0,0,0-.6-.31.59.59,0,0,1-.56-.39.58.58,0,0,0-.79-.24c-.24.16-.08.36.05.45a.86.86,0,0,1,.31.76,4.88,4.88,0,0,0,1.59,3.21,10.51,10.51,0,0,0,4.21,2.42,11.52,11.52,0,0,1,1.63.77l-.06.14-1.14-.54,0,0,.27.25,0,.07c-.32-.1-.63-.23-1-.3s-.66,0-1-.06l0,.16.34.13c.79.27,1.59.55,2.39.8a.49.49,0,0,0,.41-.12.52.52,0,0,1,.71-.07c.67.46,1.35.9,2,1.35.21.14.4.31.59.46-.28.38-.15.74.36,1.21s1,1.06,1.55,1.58a4.07,4.07,0,0,0,.36.3C239,125.11,239.39,124.61,239.76,124.07Zm6.36-24.15c-.25-.18-.41-.31-.58-.41a8.16,8.16,0,0,1-3-3.06,7.22,7.22,0,0,0-1.8-2.13,2.17,2.17,0,0,0-2.16-.34c-.56.22-1.11.48-1.72.75a3.38,3.38,0,0,1,1.5,2.32,6.92,6.92,0,0,1,0,1.64c0,.23,0,.36.24.42a6.59,6.59,0,0,1,.73.3.38.38,0,0,0,.33,0c.23-.13.43-.31.65-.46a.32.32,0,0,1,.25,0c.42.19.84.4,1.26.61a.93.93,0,0,0,.1.05l2.48.78C244.94,99.58,244.94,99.58,246.12,99.92Zm12.12,9.19a1.05,1.05,0,0,0-.41.74c-.15.74-.33,1.47-.55,2.19.14-.72.23-1.46.44-2.16a1,1,0,0,0-.4-1.15h-.06a6.71,6.71,0,0,0-1,2.4c-.09.62-.27,1.23-.38,1.85a3,3,0,0,0,0,.79c0,.22.12.42-.24.43-.09,0-.21.16-.24.26s-.1.46-.16.75l1.15.64.57-2.46.12,0c-.09.41-.16.83-.25,1.24s-.16.59-.2.88c0,.12.07.25.11.37a1.05,1.05,0,0,0,.37-.17c.46-.61.9-1.22,1.41-1.81l-.12.37c.5-.13.67-.46.65-1.22l-.38.29-.07-.07.61-1.29-.08,0-2,2.12L257,114c.15-.3.28-.62.46-.91s.58-.84.9-1.24a.58.58,0,0,1,.36-.21c.49-.05.55-.36.51-.88l-.37.23a2.07,2.07,0,0,1-.41.27s-.23-.17-.22-.27a.61.61,0,0,1,.17-.43c.22-.23.49-.4.72-.61a.75.75,0,0,0,.26-.33c.14-.42.07-.56-.35-.71-.21-.08-.43-.14-.62-.2C258.35,108.88,258.33,109.05,258.24,109.11Zm9.75-7.27.72-.27c-.08.14-.1.26-.17.3a1.89,1.89,0,0,1-.66.34c-.47.06-.58.39-.71.77-.35-.2-.43.07-.53.3a2.83,2.83,0,0,0-.23.54,2.65,2.65,0,0,1-.65,1.08c-.07.08-.06.23-.12.33s-.22.39-.48.17a.19.19,0,0,0-.16,0c-.38.08-.38.08-.8-.18l.25-.41c-.32-.08-.47,0-.72.6.31.08.28.24.07.44-.34-.24-.47,0-.71.33h.77c.76,0,1.52,0,2.27,0a8.22,8.22,0,0,0,1.19-.28l0,.24c.36.1.57-.1.82-.32s.46-.33.4-.73a.48.48,0,0,1,.47-.56c.17,0,.32-.2.44-.4l-.24,0c-.45,0-.83.31-1.33.21-.2,0-.47.31-.72.48.16-.41.37-.72.89-.73a1,1,0,0,0,.54-.34c.25-.3.45-.64.69-1a.5.5,0,0,0,.09-.6c-.22-.46-.41-.93-.64-1.44C268,101.41,268,101.41,268,101.84Zm-41.16,47.5a.33.33,0,0,0,.18.23c.22,0,.47.19.62-.13s.24-.38.36-.57l.16.1-.42.7c.44,0,.82,0,1.19-.07.06,0,.16-.17.16-.25,0-2.1-.08-4.2-.14-6.3,0-.14-.16-.28-.27-.46l-.31.3-.21-.21c-.23.15-.37.29-.28.6s-.16.73-.65.86c0,.37-.06.76-.09,1.15s.33.44.54.6a.91.91,0,0,1,.36,1c-.06.13-.29.21-.45.24a2.08,2.08,0,0,1-.54-.1C227,147.79,226.89,148.57,226.83,149.34ZM216.1,99.45c.23.09.26.21.13.42a2.8,2.8,0,0,0-.28.61c-.16.51,0,.67.55.71l.2-.53c.21.12.21.12,0,.53h1c-.15-.67.4-1.38-.2-2.05l-.07.79-.5-.31.2,1-.16.06c-.35-.69-.52-1.45-.87-2.13a1.63,1.63,0,0,0-.48,1.19c0,.1-.15.2-.23.3a1.14,1.14,0,0,1-.08-.4c0-.21.12-.41.15-.65l-.46,1h-.11l-.09-.9-.08,0a5.71,5.71,0,0,1-.42.94,6,6,0,0,1-.74.77l-.13-.08.35-.69-1.27.84-.06-.07L213,100l-.16-.12-.71.81c0-.13-.11-.29-.06-.37.18-.29.25-.71.75-.68.19-.46-.2-.74-.35-1.07l-.59,0-.12.36-.74-.08-.07.58c-.4.07-.44.41-.43.78a1.32,1.32,0,0,0,0,.35c.06.11.17.28.27.28,1.2.09,2.41.14,3.62.21l1.39.07A1.61,1.61,0,0,1,216.1,99.45ZM253,101c.19-.4.16-.5-.28-.65a.75.75,0,0,1-.6-.83,1.28,1.28,0,0,0,0-.3,3.09,3.09,0,0,0,.41-.37c.25-.33.35-.77.8-.94.05,0,.09-.25.05-.32s-.22-.41-.49-.28a1.72,1.72,0,0,0-.53.34c-.68.77-1.37,1.54-2,2.35-.31.39-.27.42.19.64a.55.55,0,0,1,.18.13c-.23,0-.5-.2-.68-.13s-.26.37-.37.54l3.18,1.44c0-.19.14-.54,0-.72s-.49-.31-.72-.5l.72.22A2.86,2.86,0,0,1,253,101Zm10.54,11.8a.87.87,0,0,0-.13-1.22c-.8-.9-1.55-1.84-2.31-2.77a1.16,1.16,0,0,0-.29,1.38c.31.54.61,1.08.91,1.63s.44.83.67,1.24a2.94,2.94,0,0,0,.25.35l.51-.47,0,0-.44.73.13.08.71-.66C263.51,113,263.47,112.85,263.5,112.8Zm-3,2.91.1.12-.2.36c.55.06.79,0,.81-.35l-.27.09a3.63,3.63,0,0,0,.08-1.82s-.13-.09-.13-.09a7.78,7.78,0,0,0-.12-2c-.25.23-.59.38-.53.8a.32.32,0,0,1-.1.19c-.23.22-.46.43-.7.67l-.15-.25-.3,2.86C259.54,116.27,260.14,116.46,260.46,115.71Zm-33.63,31c0-.12-.15-.25-.24-.37l-.38-.45c.79-.31.84-.43.77-1.52-.25.63-.29.65-.9.33-.24-.13-.37-.09-.44.17a8.5,8.5,0,0,0-.32,1.3,1,1,0,0,0,.32.67c.47.43.36,1,.36,1.52,0,.11-.44.27-.7.34s-.33-.09-.5-.09-.2.1-.31.15c.06.09.1.22.18.25.63.2,1.25.37,2,.58C226.7,148.54,226.78,147.63,226.83,146.71Zm5.48-15.49c-.19-.42-.25-.43-.6,0-.08.1-.27.22-.35.19-.34-.13-.5.09-.73.29a2,2,0,0,0-.27-2.37c0,.31-.37.57,0,.9,0,0,0,.23,0,.24-.4.13-.34.5-.41.78-.22,1-.43,2.09-.64,3.13l.12.07Zm-8,13.54a12.79,12.79,0,0,0,1.93-2.39l-.6-.19,0-.13-.88.7c-.83.67-1.64,1.37-2.48,2a1,1,0,0,0-.4.91c1,.1,2.14-.45,2-1.36Zm3.1-46.94,0,.13,1.34-.67c.39-.2.78-.38,1.17-.57a.72.72,0,0,1,.74,0c.38.2.66,0,.81-.37.09-.23.2-.45.32-.72a.69.69,0,0,0-.2,0,4.38,4.38,0,0,1-.68.15c-.39,0-.78-.08-1.17-.11a.42.42,0,0,0-.26.12,1.42,1.42,0,0,1-.86.48,1.3,1.3,0,0,0-.64.42c-.4.39-.76.81-1.13,1.21Zm39.23,8.81v-.25a.25.25,0,0,0-.09,0c-.63,0-1.26-.06-1.89,0a3.49,3.49,0,0,0-.82.24l0-.2a2.48,2.48,0,0,0-.59,0,.84.84,0,0,0-.41.27s.05.19.09.29a1.18,1.18,0,0,0,.25-.1,1.87,1.87,0,0,1,.32-.27c-.2.42-.13.76.29.91a1,1,0,0,0,1.11,0,.8.8,0,0,0,1.24.15c.18-.19.34-.39.53-.58s.38-.34.57-.51l-.1-.13Zm-35.07,27.11a3.89,3.89,0,0,0-.23-.37c-.12-.16-.25-.33-.47-.12s-.67.65-1,1-.38.39-.55.59a2.78,2.78,0,0,0-.19.27l.75.24v0l.38.16s.09,0,.1,0c.15.57.45.17.64.07a4.72,4.72,0,0,0,.73-.59l-.32-.39.74-.23c-.25-.25-.25-.25-.65,0Zm-1.14-11.55c.17-.19.44-.48.61-.44.6.11.9-.35,1.45-.57L229,120.09l1.24,2.65C230.32,122.51,230.32,122.3,230.43,122.19Zm4,20.83a.81.81,0,0,0,0-.27c-.1,0-.23,0-.31.05s-.33.28-.5.42l-.12-.14.56-.59-1.37-1.06c-.56.54-.22,1.19-.21,1.78s.8.86,1.12,1.43C233.88,144.06,234.15,143.54,234.41,143Zm32-42.78-.5.15c-.14,0-.27.14-.4.13a2,2,0,0,1-.49-.19,3.23,3.23,0,0,1,.27-.44c.06-.1.19-.15.25-.24a1.83,1.83,0,0,0,.11-.33,1,1,0,0,0-.34.12,7.69,7.69,0,0,0-.82,1,1.27,1.27,0,0,0-.15.72c0,.29,0,.58-.26.69a1.68,1.68,0,0,0-.79.83c-.19.3-.43.57-.72,1a2.18,2.18,0,0,0,.64-.25c.49-.46.95-1,1.43-1.45a.83.83,0,0,1,.21-.16c.51-.26.53-.29.54-.87C265.76,100.82,266.28,101,266.36,100.24Zm-2.42,9.34-.48-.46-.45.29-.08-.06.33-.49-.51-.2s0-.1-.06-.14-.19-.29-.32-.35-.25.1-.34.19-.29.34-.49.58c-.05-.56.44-.67.62-1.08-.34.21-.62.36-.87.55a.38.38,0,0,0,0,.36c.29.33.63.62.91,1a6.14,6.14,0,0,1,.49.76,4,4,0,0,0,.32.38Zm-1.38-11.8c-.14-.38-.45-.35-.72-.31-.12,0-.24.26-.32.42a.88.88,0,0,0-.11.45c0,.11.11.31.18.32.28,0,.28.18.25.38a2.23,2.23,0,0,1-.18.75c-.12.19-.4.27-.61.41a1.88,1.88,0,0,0-.43.31s.06.26.12.27a3,3,0,0,0,.67,0s.1-.08.13-.13L263,98.38A2.6,2.6,0,0,1,262.56,97.78ZM235,141.92a1.41,1.41,0,0,0,.17-.35c0-.1,0-.28,0-.31-.46-.24-.93-.46-1.44-.71l0,.76a.71.71,0,0,1-.57-1c-.39-.27-.79-.51-1.23-.32a4.66,4.66,0,0,0,.62,1c.53.49,1.13.91,1.69,1.36.11.09.2.2.34.34C234.72,142.42,234.86,142.17,235,141.92ZM234.89,111a2.93,2.93,0,0,0,.29,1c.15.21.5.27.77.38,0,0,.1-.1.12-.17s.05-.24.07-.37h.1a1.84,1.84,0,0,1,0,.25,1.14,1.14,0,0,0,.8.87.49.49,0,0,0,.34-.1.33.33,0,0,0,0-.33c-.19-.31-.42-.61-.63-.92a1,1,0,0,1-.21-.41.57.57,0,0,0-.86-.49c-.43.19-.43.19-.37.41Zm34-4.31.08,0-.8,1.35c.32.14.67.06,1.57-1.05.51-.62.2-1.56.15-2.47L268.34,106l.05.11,1.25,0,0,.08a1.14,1.14,0,0,1-.36.19c-.57.07-.63.13-.7.77ZM224.36,148.4c0-.32.06-.65.13-1s-.07-.64-.51-.62c-.21,0-.42,0-.62,0a.8.8,0,0,0-.41.17,7.31,7.31,0,0,0-.52.59c-.14.15-.13.28,0,.38l1.79.95A4.38,4.38,0,0,0,224.36,148.4Zm7.39-19.78a1,1,0,0,1,.67.54,3.52,3.52,0,0,0,.6.88c.25.29.42.26.66,0l.26-.33c.08.07.35.11.13.38a4.72,4.72,0,0,1-.41.37l1.07.49c.05,0,.12.07.17.05.47-.19.77,0,1,.38a.37.37,0,0,0,.3.1,10.86,10.86,0,0,0-5.75-3.33l-.05.1Zm3.91-4.45a.48.48,0,0,0-.3-.15c-.48-.06-1-.09-1.48-.13.38.62,3.31,2.67,3.67,2.55C236.91,125.66,236.29,124.91,235.66,124.17Zm-6.95,9.53c.08-.5.19-1,.27-1.51a.34.34,0,0,0,0-.28c-.3-.34-.3-.52,0-.81.09-.07.17-.15.29-.26-.6-.2-.25-.6-.25-1.05-.16.12-.33.18-.35.27-.3,1.47-.59,2.94-.88,4.42C228.55,134.41,228.6,134.36,228.71,133.7Zm30.54-37.62a.81.81,0,0,0-.89-.86.28.28,0,0,0-.19.11,1.7,1.7,0,0,0-.06,1.65c.08.14.28.32.39.3a.93.93,0,0,0,.48-.34c.08-.09.08-.24.12-.37A2.77,2.77,0,0,0,259.25,96.08ZM237,115c0,.22-.08.5.26.57s.55.2.74-.12.33-.5.08-.82-.21-.54-.38-.76a3.69,3.69,0,0,0-.68-.52C237,114,237,114.49,237,115Zm22.51-3.1a.17.17,0,0,0-.1.1c0,.35-.07.71-.11,1.07l.1,0,.25-.27a14.28,14.28,0,0,0,.94-1.12,2.16,2.16,0,0,0,.18-.64l-.13,0-.93,1.25-.09-.06a.51.51,0,0,1,0-.17c.29-.39.57-.79.87-1.18a.63.63,0,0,0,0-.85c-.38-.06-.27.86-.91.37l-.09.72.48-.1C259.79,111.36,259.88,111.74,259.46,111.9Zm7.77-3.59a.56.56,0,0,0-.88,0c-.08-.09-.12-.22-.2-.24a10.59,10.59,0,0,0-1.12-.23.57.57,0,0,0-.38.09c.8.4,1.35,1.18,2.36,1.36C266.93,108.86,267.6,108.68,267.23,108.31Zm-16.47-6.47c-.31-.12-.63-.19-.94-.3s-.34-.07-.43.17,0,.34.22.4l3,1A4.3,4.3,0,0,0,250.76,101.84Zm-9.95,21.45s0,.1-.05.14a.81.81,0,0,0,0,1.22H241l-.28.86.09,0a2.49,2.49,0,0,0,.28-.74,7.36,7.36,0,0,1,.63-2c.07-.2-.07-.47-.11-.7l-.11-.06C241.26,122.49,241,122.89,240.81,123.29ZM224.75,141a1.6,1.6,0,0,1-.65,1.48l-.66-.64-.26,1.12a1.29,1.29,0,0,1,.21-.07,1,1,0,0,1,.44,0,.53.53,0,0,0,.58-.05c.31-.25.63-.48.93-.73a1.16,1.16,0,0,0,.18-.33l-.23-.1Zm42.68-34.26,0-.17-1.09,1.33,1,.14a.34.34,0,0,0,.23-.11c.32-.48.63-1,1-1.47l0-.13ZM234.9,126c-.62-.35-1.23-.73-1.86-1a4.08,4.08,0,0,0-1-.34.37.37,0,0,0-.48.36l3.78,1.46.05-.11Zm-.6-3.44-1.27.62c.27.33.5.56.92.54s.89.05,1.43.08ZM237.4,138a1.23,1.23,0,0,0,1.09-.65l.07.07-.08.34c.3.06.48-.11.43-.38-.1-.48-.19-1-.29-1.44,0,0,0-.06-.1-.19Zm-12.74,6.79.38-.11a2.59,2.59,0,0,1,.12.52c0,.51,0,.51-.5.42-.08,0-.3.18-.29.19a1.22,1.22,0,0,0,.33.51c.22.14.31-.07.37-.26l.93-3-.06-.05Zm10.79-46.7.12-1.93-1.68,1.72Zm22.23,17.87-.12-.07.15-.47-.08,0-.49.67c.43.06.79.28,1.14.07a1.15,1.15,0,0,0,.38.15c.06,0,.17-.15.17-.24.06-.56.08-1.12.12-1.75Zm-25.24,6.79c.44.42.43.4,1,.13.38-.19.78-.34,1.17-.51l-.61-.62-1.7.83Zm34.15-23.17a.93.93,0,0,0,.31.55c.05,0,.33-.1.45-.21.55-.52.53-.35.09-1a10.72,10.72,0,0,0-.77-.82A13.06,13.06,0,0,0,266.59,99.55Zm-12.3,5.25v.14c1.11,0,2.19.63,3.36.09a3.21,3.21,0,0,0-.44-.46,1.4,1.4,0,0,0-.46-.16l.12.34Zm-25,36.35.19-.07-.24-1.75-.5.2c-.34.1-.63.25-1-.06-.21-.16-.71.07-1.08.11s-.5,0-.78,0l.07.26a4,4,0,0,1,1.95-.18l.05.14-1.2.91.14.17a5.33,5.33,0,0,1,1.75-1.3l.1.08-.73,1.55.39.18c-.06-.16-.21-.34-.16-.45.21-.49.48-.95.72-1.42l.19,0Zm5.6,8.55-.35-.77-.6.45c-.21.08-.51,0-.57.38l-.69.12V150c.28.14.48.47.87.33.22-.08.49-.14.37-.39Zm-16.77-7.3c.07.2.15.39.24.62.34-.23.93.21,1-.44,0-.21-.13-.65-.24-.67A5.06,5.06,0,0,0,218,142C218.06,142.23,218.07,142.32,218.1,142.4Zm46.73-38.32a2.81,2.81,0,0,1,.56-.46c-.34-.17-.64-.54-1.13-.26-.33.2-.48.52-.38,1.11A.89.89,0,0,0,264.83,104.08Zm-25.45,36.74c.12-.56,0-1.17.17-1.72a3.43,3.43,0,0,0,0-1.53.66.66,0,0,0-.32-.4,12,12,0,0,1-.73,6.55l.16.05C238.89,142.79,239.17,141.81,239.38,140.82Zm-5.43,4.1.19.22,1.12-1.47c.19,0,0,.9.59.25l-1-.83Zm21.93-40.55c.3.17.33-.05.39-.23.23-.7.23-.7-.48-1l-.18-.06a1.62,1.62,0,0,0-.06,1.39C255.67,104.45,255.82,104.33,255.88,104.37ZM230.76,145.7c.19-.13.46-.23.46-.32a2.54,2.54,0,0,0-.22-.95,10.65,10.65,0,0,0-.73-1.07l-.06,0Zm33.09-38.09c-.08,0-.23-.09-.29,0-.27.18-.52.4-.79.62a1.45,1.45,0,0,0,.15.21c.41.44.41.44.82,0,.15-.15.31-.28.51-.47C264.09,107.8,264,107.69,263.85,107.61ZM233,138.82l-1,.22.14.51-.09.12,1.18.24Zm30.5-22.09c-.11,0-.3.13-.55.25-.16,0-.46-.18-.59.18l-.64-.08-.06.16a4.6,4.6,0,0,0,.82.37c.1,0,.26-.19.43-.34l.77.08.1-.17C263.69,117,263.63,116.79,263.5,116.73ZM240.12,142.5c-.14-.29-.3-.33-.44-.07a3.85,3.85,0,0,0-.37,1.1c.27-.23.75.12.88-.36l.24-.77-.09,0Zm-1.37,2.78-.14-.5-1,1.46.67-.28.16.39.87-1.27Zm-2.45,2.38.68-.18.11.44,1.06-1.15-.6.13-.07-.49Zm-1.54,1.18c.55.07,1.11.33,1.48-.22.11-.17,0-.52-.07-.85Zm-13.46-1.79a6.31,6.31,0,0,0,.63.53c.07,0,.27,0,.29,0a.6.6,0,0,0,0-.37,1.19,1.19,0,0,0-.25-.47,1.31,1.31,0,0,0-.5-.31c-.09,0-.23.14-.39.25A1.27,1.27,0,0,0,221.3,147.05Zm46.83-32.42,1-1-.5.06-.05-.44-1.17,1.17,0,.06.64-.2ZM235.59,95l-.08-1.59-.13,0-.7,1.34ZM222.08,144.4c-.13-.46-.58-.79-.86-.71-.09,0-.22.14-.21.19a1.06,1.06,0,0,0,.19.45,4.29,4.29,0,0,0,.49.46l.08.12C221.88,144.74,222.12,144.53,222.08,144.4ZM235,140.17l-1.84-.09,1.79.9ZM264.1,99.83a2.15,2.15,0,0,0-.62.45.49.49,0,0,0,.08.44.41.41,0,0,0,.4,0,12,12,0,0,0,.76-1l-.07,0A2.34,2.34,0,0,0,264.1,99.83Zm-27.19,28a2,2,0,0,1,.92,2.55,1.37,1.37,0,0,0-.09-2c-.46-.4-.93-.77-1.4-1.15l-.64-.52,0,.07C236.07,127.08,236.48,127.44,236.91,127.78ZM209.79,91.22c-.51.15-1.15.2-1.43.9.09-.06.21-.1.25-.18.14-.3.34-.29.61-.21a2.17,2.17,0,0,1,1.33.79Zm55.65,25.29c.1-.14,0-.4.05-.67l-1.32.64C264.78,116.8,265.2,116.83,265.44,116.51ZM226,143.69l.54.42c.06,0,.18.07.2,0a.38.38,0,0,0,.11-.23,1.45,1.45,0,0,0-.59-1.07Zm10.46-12.37c0-.15.07-.29,0-.36a4.47,4.47,0,0,0-.45-.42c-.1-.1-.21-.18-.3-.28a1.69,1.69,0,0,0-1.13-.62ZM267,115.15l.09-.56-1.07.91.41,0,.07.38,1-.81ZM231.74,137l0,.11,1.9-.54C232.81,136,232.33,136.69,231.74,137Zm8.38,1.85-.3,2.87A3.46,3.46,0,0,0,240.12,138.83ZM248.29,103c.56.18,1,.33,1.49.46,0,0,.06-.13.05-.1l-.66-.09.24-1-.06,0-.22.48-.33-.12.23-.55C248.62,102.19,248.63,102.65,248.29,103ZM230.1,142.86l.94,1.35c.12-.69.09-.79-.42-1.31Zm39.64-31,.24-.36v.39c.43,0,.65-.3.73-.94l-.32.44v-.51A1.15,1.15,0,0,0,269.74,111.83Zm-11.67-6.93c-.28-.46-.36-1-1-1.17A1.17,1.17,0,0,0,258.07,104.9ZM211.88,93.08c1.05-.25,1.47-.66,1.25-1.21Zm57.95,10.67-.3-.73a3.36,3.36,0,0,0-.52.39,1.3,1.3,0,0,0-.13.49Zm-1.8-3.47c.08-.06.06-.26.08-.4s-.26,0-.35,0a1.12,1.12,0,0,0-.66.82l.1.09A8.88,8.88,0,0,0,268,100.28Zm-28.26,43.79c-.65-.3-.79-.25-1,.42C239.53,144.67,239.66,144.61,239.77,144.07Zm15.17-43.65c-.07-.17-.07-.36-.13-.53a1.32,1.32,0,0,0-.29-.42,1.21,1.21,0,0,1,0,1c-.07.11,0,.33.06.5C255.07,100.94,255.11,100.86,254.94,100.42Zm14.83,1.23c.06.78.16.9.67.88C270.44,101.88,270.24,101.62,269.77,101.65ZM229.86,130.6l-.1,0-.83,4.22.11,0Zm30-20.84c.12-.05.23-.12.35-.18l-.39-.64c-.07.07-.17.13-.18.2a6,6,0,0,0-.08.74Zm-23.75,34.36-1.32,1,.07.11,1.53-.81Zm19-48-.14,0c-.09.15-.29.37-.25.43a4.36,4.36,0,0,0,.61.68l.15-.11Zm-27.74,39.25-.43.26.63.12-.19,1.38a1.41,1.41,0,0,0-.23-2Zm35.52-39.58c.09.7.46.86,1.15.46ZM213,97.64c-.05,0-.13-.09-.18-.07-.36.09-.6.49-1,.45,0,0-.11.12-.2.23.62.08,1.06-.3,1.56-.42A.63.63,0,0,0,213,97.64ZM224,115.26v.12l1.33.05C224.8,114.87,224.8,114.87,224,115.26ZM260.42,107c.07.34-.05.72.31,1C261,107.41,260.91,107.05,260.42,107Zm9.38,5.62c-.63-.26-.68-.25-1,.33C269.18,112.81,269.64,113.18,269.8,112.61ZM239.14,126l-.32.3c.59.1.81-.13.66-.74l-.32.09-.36.1ZM262,106.07c.37-.69.36-.75-.28-.81C261.89,105.53,261.44,105.92,262,106.07ZM238.69,134c-.08-.6-.29-.85-.83-.85C238.29,133.36,238.05,134.07,238.69,134Zm-11.56.65c.49.19.78-.32.61-1Zm.82,4a1.26,1.26,0,0,0,0-.37l-.32.26-1-.58a3,3,0,0,0-.38-.15L228,139A1.72,1.72,0,0,1,228,138.67Zm34.18-34.54c-.47-.09-.63,0-.85.48C261.59,104.73,261.88,104.57,262.13,104.13Zm-34.3,46.07c-.58-.27-.9-.25-1.16.07C227.07,150.31,227.42,150.46,227.83,150.2ZM233.6,94l-.42-.11-.31.54,1.13-.2,0-.13Zm2.62,20.43c-.13.48,0,.66.49.87-.08-.21-.11-.44-.19-.46-.49-.13-.14-.33-.06-.5s.1-.06.15-.09l-.09-.14C236.42,114.21,236.25,114.29,236.22,114.42Zm-3,16.78-.11-.07L232,133.07C232.74,132.6,232.76,131.75,233.25,131.2Zm22.34-30.14c-.06-.07-.24,0-.36,0a.92.92,0,0,0,0,.29,4.42,4.42,0,0,0,.26.41A.38.38,0,0,0,255.59,101.06Zm-17.1,31.81c.28-.34,0-.55-.08-.76s-.24-.3-.44-.06Zm22.88-26.05c.11,0,.25-.2.38-.31l-.69-.28C261,106.64,261.16,106.8,261.37,106.82Zm-20.54,11a.3.3,0,0,0,.24.1.25.25,0,0,0,.14-.18c-.09-.24-.12-.53-.56-.55C240.72,117.42,240.76,117.62,240.83,117.8Zm-2.91,16.29c.09-.38.15-.6-.21-.73-.14-.05-.22-.28-.33-.43l-.12.08ZM263,104.6l.12,0,.06-.89-.44.29Zm-13.3-1.95-.59.45.66.25Zm10,4.3c-.49.2-.52.53-.1,1Zm-2.5,9.49c-.37.13-.65-.47-1-.08C256.49,116.42,256.81,116.74,257.19,116.44ZM251.3,97.78l.67-.66-.12-.11C251.39,97.23,251.2,97.48,251.3,97.78Zm-42-4.72.51.4a1.23,1.23,0,0,0,0-.17c0-.14,0-.28,0-.43l-.23.1-.11-.38-.06,0Zm43.17,11.52.66.13L253,104Zm8.09-4.61c-.24.07-.47.09-.48.14a2.52,2.52,0,0,0,.08.53h.11Zm-18.67,28.71c.54-.17.72-.47.56-.93Zm-22-27.5-1.06.13C218.82,101.61,219.12,101.59,219.86,101.18Zm35.86,1.74.77.36,0-.09C256.3,103,256.12,102.72,255.72,102.92Zm-20.56,37.85c0,.06,0,.18,0,.27a1.18,1.18,0,0,0,.22-.14c.11-.19.2-.39.29-.58l-.06,0A5.56,5.56,0,0,0,235.16,140.77Zm-5.69-11c-.37.05-.28.35-.34.54s.12.17.24.32Zm.68-6.51-.08,0-.37,1.19.17.06ZM247,101.67l-.09,0-.35,1,.18.07Zm-11.7,10.9-.08.09.36.49.29-.26Zm-6.15,15.11a1.33,1.33,0,0,0,.15-1.29Zm9.7-13.19-.14.05.38,1,.15-.06Zm-6.56,17.44-.57.6C232,132.58,232.22,132.39,232.24,131.93Zm26.93-24.34-.13.74C259.53,108.26,259.55,108.18,259.17,107.59Zm-33.74,29.74-.14-.14-.57.53.13.13C225.29,137.91,225.07,137.35,225.43,137.33Zm30.86-30.07-.11.37.63.05.05-.15Zm-46.7-6.07.07.16.68-.29-.08-.19ZM208,99.7l.5-.19.45-.11-.06-.14C208.59,99.36,208.17,99.23,208,99.7Zm3.07-7.42c-.29-.49.23-.73.26-1.17C210.8,91.74,210.72,92,211.09,92.28ZM225,138.65l-.1,0-.32.63.08.09.32-.11-.06-.1Zm35.4-30.5-.21-.52C259.87,108,259.87,108,260.38,108.15ZM236.22,123.8l0-.12c-.19-.23-.47-.17-.74-.1Zm-2.16-26.36-.84.25C233.69,98,233.85,97.68,234.06,97.44Zm-1.91.47.09,0,.43-1-.1,0Zm7.67,22.85.62.06-.16-.47ZM254.1,98.07l.12-.39-.36-.06,0,.13Z" transform="translate(-189.35 -29.55)"/><path d="M207,103.29a9.23,9.23,0,0,1-.05,1,.77.77,0,0,1-.27.48c-.3.22-.6.41-.65.83,0,.23-.13.46-.14.71a3.5,3.5,0,0,0,.14-.46.73.73,0,0,1,.78-.61.7.7,0,0,0,.29-.08c.52-.34,1-.7,1.55-1.06a.23.23,0,0,0,.12-.19c-.23.07-.47.12-.69.2-.41.14-.56,0-.68-.38-.05-.18-.27-.32-.41-.48Z" transform="translate(-189.35 -29.55)"/><path d="M208.53,93.77a10.47,10.47,0,0,0-1.07.91,1,1,0,0,0,.46,1.64,6.83,6.83,0,0,0,.17-1.24,1.77,1.77,0,0,1,.52-1.24Z" transform="translate(-189.35 -29.55)"/><path d="M208.3,107.08c-.13,0-.28,0-.41.08a1,1,0,0,1-.9-.12.32.32,0,0,0-.33,0,.4.4,0,0,0-.14.33c0,.06.17.11.27.16.61.3,1.07-.08,1.55-.32Z" transform="translate(-189.35 -29.55)"/><path d="M208.29,111.06c-.27.22-.54.45-.82.65s-.56.38-.84.57l.05.09c.52-.31,1-.61,1.54-.94.09-.06.33-.2.05-.37Z" transform="translate(-189.35 -29.55)"/><path d="M208.71,102.28l.42-.16c-.07-.1-.12-.26-.21-.27s-.23.07-.31.15S208.66,102.15,208.71,102.28Z" transform="translate(-189.35 -29.55)"/><path d="M205.6,95.84a2.54,2.54,0,0,0,.47.07c.09,0,.22,0,.25-.11s0-.2-.07-.27-.17,0-.23,0A4.56,4.56,0,0,0,205.6,95.84Z" transform="translate(-189.35 -29.55)"/><path d="M207.58,94.1l-.1-.07-.4.6.11.08c.16-.17.33-.34.48-.51C207.68,94.2,207.61,94.13,207.58,94.1Z" transform="translate(-189.35 -29.55)"/><path d="M251,116.51c-.27-.08,0-.59-.4-.52-.06,0-.16.21-.15.23s.3.27.45.41Z" transform="translate(-189.35 -29.55)"/><path d="M206,116.62l.66-.89C206.15,115.87,206.05,116.24,206,116.62Z" transform="translate(-189.35 -29.55)"/><path d="M207,103.3l.17-1c-.3.26-.3.26-.16,1Z" transform="translate(-189.35 -29.55)"/><path d="M206.69,96.75c-.06-.19-.05-.48-.5-.26l.39.39Z" transform="translate(-189.35 -29.55)"/><path class="cls-1" d="M228,99.65c.07.52-.31.54-.67.7a8.63,8.63,0,0,0-1.5.92c-.51.36-1,.81-1.51,1.13a14.91,14.91,0,0,1-3.54,1.79,8.68,8.68,0,0,1-1.91.23c-.69,0-1.39,0-2.13,0a5.88,5.88,0,0,1,.09.6,1.59,1.59,0,0,1,0,.62c-.33.74-.69,1.47-1.07,2.19-.19.35-.5.65-.69,1a4.61,4.61,0,0,0-.22.83c-.17.61-.37,1.21-.53,1.82a2,2,0,0,0,0,.65c0,.31,0,.62,0,.92a8.43,8.43,0,0,1,1-.63c1.46-.7,2.94-1.36,4.41-2,.3-.13.6-.27.91-.39s.6-.32.79.17c0,.07.32.08.48.06.87-.14,1.74-.3,2.6-.46a2,2,0,0,1,1.79.63c.48.47.94,1,1.42,1.43a1.76,1.76,0,0,0,.45.32,15.68,15.68,0,0,1,3.29,2.3s.07,0,.14.06a2.71,2.71,0,0,0,.55-1.52c.07-1.74.12-3.47.2-5.21.07-1.47.1-2.95.29-4.41a19.82,19.82,0,0,1,.77-2.81,3.83,3.83,0,0,1,.22-.56c.18-.4-.13-.63-.34-.85s-.44-.13-.51.16-.22.29-.44.28a2.51,2.51,0,0,0-1,0c-.55.23-1.07,0-1.6,0-.37,0-.75.08-1.13.09A2.94,2.94,0,0,1,228,99.65Z" transform="translate(-189.35 -29.55)"/><path class="cls-1" d="M220.63,141s.06.08.11.08c.72.07,1.44.15,2.16.18a2.75,2.75,0,0,0,1.55-1.21,1.54,1.54,0,0,0-.09-.52l-.4.11,0-.07.39-.13,0-.75c.15-.07.21-.22-.07-.42.2-.13.42-.25.17-.43l.42-1,.9-1.12c.13,0,.34-.08.35-.13,0-.45.4-.45.73-.58l-.07-.32c.09-.07.25-.13.3-.24a11,11,0,0,0,.89-1.83,13.31,13.31,0,0,0,.32-2c.12-.87.24-1.73.37-2.63a11.67,11.67,0,0,0-3.36.4,10.81,10.81,0,0,0-7.59,8.19,10.1,10.1,0,0,0-.15,3.34.59.59,0,0,0,.53.61c.44.08.87.23,1.31.31A12.83,12.83,0,0,0,220.63,141Z" transform="translate(-189.35 -29.55)"/><path class="cls-1" d="M234.38,109.14,235,109a2.35,2.35,0,0,0,.24.54c.16.19.32.43.64.35s.52.14.62.44.28.73.43,1.1.14.5.51.46c.09,0,.22.2.31.32a2.81,2.81,0,0,0,.38.49c0-.1,0-.2-.07-.29-.76-2.53-1.53-5-2.26-7.57-.21-.72-.33-1.47-.49-2.2-.05-.24-.11-.54-.39-.5a.81.81,0,0,0-.47.44,2.16,2.16,0,0,0-.31,1c.06.62-.32,1.12-.36,1.7-.1,1.19-.22,2.39-.22,3.58s-.24,2.41-.25,3.62c0,.51-.09,1-.12,1.53a2.33,2.33,0,0,0,.06.35,1.91,1.91,0,0,1,0,.48c-.08.29-.23.55-.3.84a.6.6,0,0,0,.15.41,16.41,16.41,0,0,0,3.12,2.7s0,0,.06,0a1.66,1.66,0,0,1,1,.32s.15,0,.22,0c.46-.19.46-.2.77.16a3.87,3.87,0,0,0,2.21-.79l.15.13c.33,0,.3-.38-.07-1.41l-.51.31-.46-1.11a2.34,2.34,0,0,1-.19.3c-.11.12-.22.28-.36.33-.57.21-1.15.39-1.73.57s-.62.09-.83-.37-.44-.93-.62-1.41a2.29,2.29,0,0,0-.74-1,2.81,2.81,0,0,1-.31-.37l.43,0s0,0,0-.06c-.35-1-.71-2.1-1.07-3.15-.07-.23-.16-.46.1-.63a.73.73,0,0,0,.27-.86C234.45,109.51,234.42,109.33,234.38,109.14Z" transform="translate(-189.35 -29.55)"/><path class="cls-3" d="M238.17,125.38c-.51-.52-1-1.08-1.55-1.58s-.64-.83-.36-1.21c-.19-.15-.38-.32-.59-.46-.67-.45-1.35-.89-2-1.35a.52.52,0,0,0-.71.07.49.49,0,0,1-.41.12c-.8-.25-1.6-.53-2.39-.8l-.34-.13,0-.16c.33,0,.67,0,1,.06s.64.2,1,.3l0-.07-.27-.25,0,0,1.14.54.06-.14a11.52,11.52,0,0,0-1.63-.77,10.51,10.51,0,0,1-4.21-2.42,4.88,4.88,0,0,1-1.59-3.21.86.86,0,0,0-.31-.76c-.13-.09-.29-.29-.05-.45a.58.58,0,0,1,.79.24.59.59,0,0,0,.56.39.81.81,0,0,1,.6.31,7.32,7.32,0,0,0,1.2,1.91,6.33,6.33,0,0,1,.57.69,6.17,6.17,0,0,0,1.5,1.68c.44.28.91.53,1.37.79a7.24,7.24,0,0,0,.73.38c.59.23.7.41.59,1l.36.09c.3.08.57.31.85-.13s.68-.25.89.17a.6.6,0,0,0,.16.22c.34.26.7.51,1,.78s.4.32.5-.08c.59.3.37.89.58,1.34l-.53.08.1.1c.46.17.88-.14,1-.78,0-.35,0-.71,0-1.06s.08-.52.12-.77h.13l.28.33a2,2,0,0,1,.15-.45.41.41,0,0,1,.26-.19c.24,0,.5.29.37.43l-.28-.12c.11.3-.15.8-.37.78l-.28-.21c0,.38.36.32.45.48s.27.16.47.1a8,8,0,0,1,1.1-.24V121c-.27.14-.54.29-.82.42s-.31.34-.06.62a2.1,2.1,0,0,1-.49.09,6.54,6.54,0,0,1-.21-.77l-.66-.46c-.11.36.2.73,0,1.09s-.29.45-.4.69-.2.48-.12.6a.43.43,0,0,0,.66,0,3.45,3.45,0,0,1,.41-.25l.06.08-.55.52.55-.09-.1.45.45-.21c.06,0,.09-.1.14-.15l1.86-2.34,1.36-1.68a.86.86,0,0,1-.05.19,4.36,4.36,0,0,0-.52,1.11,2.32,2.32,0,0,1-1.13,1.37c-.43.3-.6.44-.61.93a1.59,1.59,0,0,1-.23.81c-.37.54-.79,1-1.23,1.61A4.07,4.07,0,0,1,238.17,125.38Zm-4-4.6a.47.47,0,0,0,.6-.41.52.52,0,0,0-.17-.43c-.24-.11-.58.16-.7.58C234,120.58,234.09,120.73,234.21,120.78Z" transform="translate(-189.35 -29.55)"/><path class="cls-1" d="M244.41,100.32c.53-.74.53-.74,1.71-.4-.25-.18-.41-.31-.58-.41a8.16,8.16,0,0,1-3-3.06,7.22,7.22,0,0,0-1.8-2.13,2.17,2.17,0,0,0-2.16-.34c-.56.22-1.11.48-1.72.75a3.38,3.38,0,0,1,1.5,2.32,6.92,6.92,0,0,1,0,1.64c0,.23,0,.36.24.42a6.59,6.59,0,0,1,.73.3.38.38,0,0,0,.33,0c.23-.13.43-.31.65-.46a.32.32,0,0,1,.25,0c.42.19.84.4,1.26.61a.93.93,0,0,0,.1.05Z" transform="translate(-189.35 -29.55)"/><path class="cls-1" d="M250.41,109.22l1.72-.84.64-.33,1.81-.85a1.29,1.29,0,0,0,.28-.25h0a1,1,0,0,1,.87.81.67.67,0,0,0,.26.34,1.3,1.3,0,0,0,.39.17l-.3.25,1,0,.07.13-.65.65,0-.44a2.3,2.3,0,0,0-.37.49,5.35,5.35,0,0,1-1.6,2c-.5.48-1,1-1.45,1.5h0c-.13.09-.28.18-.41.29-.36.31-.47.31-.79,0a7.12,7.12,0,0,1-.78-.88c-.49-.73-.93-1.49-1.38-2.24-.08-.13-.2-.33.08-.41Zm3.18.91.36.63c.13-.84.13-.84,1-1.54a1.3,1.3,0,0,0-.28.11.38.38,0,0,1-.51,0c-.33-.25-.49-.16-.58.2s-.18.51-.26.73Z" transform="translate(-189.35 -29.55)"/><path class="cls-1" d="M258.42,108.69c-.07.19-.09.36-.18.42a1.05,1.05,0,0,0-.41.74c-.15.74-.33,1.47-.55,2.19.14-.72.23-1.46.44-2.16a1,1,0,0,0-.4-1.15h-.06a6.71,6.71,0,0,0-1,2.4c-.09.62-.27,1.23-.38,1.85a3,3,0,0,0,0,.79c0,.22.12.42-.24.43-.09,0-.21.16-.24.26s-.1.46-.16.75l1.15.64.57-2.46.12,0c-.09.41-.16.83-.25,1.24s-.16.59-.2.88c0,.12.07.25.11.37a1.05,1.05,0,0,0,.37-.17c.46-.61.9-1.22,1.41-1.81l-.12.37c.5-.13.67-.46.65-1.22l-.38.29-.07-.07.61-1.29-.08,0-2,2.12L257,114c.15-.3.28-.62.46-.91s.58-.84.9-1.24a.58.58,0,0,1,.36-.21c.49-.05.55-.36.51-.88l-.37.23a2.07,2.07,0,0,1-.41.27s-.23-.17-.22-.27a.61.61,0,0,1,.17-.43c.22-.23.49-.4.72-.61a.75.75,0,0,0,.26-.33c.14-.42.07-.56-.35-.71C258.83,108.81,258.61,108.75,258.42,108.69Z" transform="translate(-189.35 -29.55)"/><path class="cls-1" d="M249.36,109.3a9.36,9.36,0,0,1-.62-4.69,1.4,1.4,0,0,1,.24.06l3.3,1.2,1.4.52c.38.14.77.25,1.16.39,0,0,0,.11,0,.17h0l-2.09,1.1-.64.33-1.72.84-.69.34C249.6,109.47,249.4,109.41,249.36,109.3Zm1-2.34,0,.17,1.29-.4.57,0c-.14.29-.28.59-.41.89.56-.23.67-.61.39-.89l.7-.24,0-.09-1.23.3Z" transform="translate(-189.35 -29.55)"/><path class="cls-1" d="M236.82,136l0-.17-1.32.41-.64,0-.25-.94,3.07-1.11.33.53h.08v-.54c.13.35.33.51.67.46a.28.28,0,0,1,.18.06,1.31,1.31,0,0,1,0,1.29l-.52-1a1.82,1.82,0,0,1-.07.44c-.3.6-.66,1.17-.9,1.78a1.5,1.5,0,0,1-1.31,1h0c-.65.08-1.3.16-1.95.21a.51.51,0,0,1-.28-.16,6.75,6.75,0,0,1,.39-.69c.11-.19.34-.37.34-.55,0-.49.31-.6.67-.71a1,1,0,0,0,.18-.13Zm0,.88-.57.28c.09.14.15.36.27.4s.29-.09.53-.18Z" transform="translate(-189.35 -29.55)"/><path class="cls-1" d="M269.33,102.13a.5.5,0,0,1-.09.6c-.24.31-.44.65-.69,1a1,1,0,0,1-.54.34c-.52,0-.73.32-.89.73.25-.17.52-.51.72-.48.5.1.88-.21,1.33-.21l.24,0c-.12.2-.27.38-.44.4a.48.48,0,0,0-.47.56c.06.4-.18.52-.4.73s-.46.42-.82.32l0-.24a8.22,8.22,0,0,1-1.19.28c-.75.05-1.51,0-2.27,0h-.77c.24-.29.37-.57.71-.33.21-.2.24-.36-.07-.44.25-.56.4-.68.72-.6l-.25.41c.42.26.42.26.8.18a.19.19,0,0,1,.16,0c.26.22.37,0,.48-.17s.05-.25.12-.33a2.65,2.65,0,0,0,.65-1.08,2.83,2.83,0,0,1,.23-.54c.1-.23.18-.5.53-.3.13-.38.24-.71.71-.77a1.89,1.89,0,0,0,.66-.34c.07,0,.09-.16.17-.3l-.72.27c0-.43,0-.43.7-1.15C268.92,101.2,269.11,101.67,269.33,102.13Zm-2.07,3.32c.53,0,.57,0,.61-.72l-.14-.07Zm-.65-.7.48-.6C266.58,104.14,266.58,104.43,266.61,104.75Z" transform="translate(-189.35 -29.55)"/><path class="cls-1" d="M227,147c-.08.77-.15,1.55-.21,2.32a.33.33,0,0,0,.18.23c.22,0,.47.19.62-.13s.24-.38.36-.57l.16.1-.42.7c.44,0,.82,0,1.19-.07.06,0,.16-.17.16-.25,0-2.1-.08-4.2-.14-6.3,0-.14-.16-.28-.27-.46l-.31.3-.21-.21c-.23.15-.37.29-.28.6s-.16.73-.65.86c0,.37-.06.76-.09,1.15s.33.44.54.6a.91.91,0,0,1,.36,1c-.06.13-.29.21-.45.24A2.08,2.08,0,0,1,227,147Z" transform="translate(-189.35 -29.55)"/><path class="cls-3" d="M215.79,101.14a1.61,1.61,0,0,1,.31-1.69c.23.09.26.21.13.42a2.8,2.8,0,0,0-.28.61c-.16.51,0,.67.55.71l.2-.53c.21.12.21.12,0,.53h1c-.15-.67.4-1.38-.2-2.05l-.07.79-.5-.31.2,1-.16.06c-.35-.69-.52-1.45-.87-2.13a1.63,1.63,0,0,0-.48,1.19c0,.1-.15.2-.23.3a1.14,1.14,0,0,1-.08-.4c0-.21.12-.41.15-.65l-.46,1h-.11l-.09-.9-.08,0a5.71,5.71,0,0,1-.42.94,6,6,0,0,1-.74.77l-.13-.08.35-.69-1.27.84-.06-.07L213,100l-.16-.12-.71.81c0-.13-.11-.29-.06-.37.18-.29.25-.71.75-.68.19-.46-.2-.74-.35-1.07l-.59,0-.12.36-.74-.08-.07.58c-.4.07-.44.41-.43.78a1.32,1.32,0,0,0,0,.35c.06.11.17.28.27.28,1.2.09,2.41.14,3.62.21Z" transform="translate(-189.35 -29.55)"/><path class="cls-1" d="M267.28,109.85l-1.5,1c.31.63.51.66,1,.29.2-.16.32-.52.71-.32.08,0,.29-.19.53-.36-.12.18-.16.31-.25.37-.31.23-.43.73-1,.68,0,0-.07.23,0,.31a2.92,2.92,0,0,1,.28.53l-.91-.62-.3.27-.05,0,.27-.43-.3-.31a7,7,0,0,1-.52.55c-.13.1-.18.47-.46.17l-.38.52.39.25s0,0,0,.18l.42-.35-.08.33c.18-.12.36-.17.43-.29.17-.29.33-.18.49,0a1.51,1.51,0,0,1,.21.23c.49.61.61.61,1.09,0-.17-.16-.26-.28,0-.43a1.87,1.87,0,0,0,1-.93l-.34.07s.05-.07.08-.08a1.78,1.78,0,0,0,.68-.73,10.5,10.5,0,0,0,1-2.75,1.44,1.44,0,0,0,0-.66c-.3.29-.61.57-.9.87,0,0,.06.19.09.27l-.82.25-.28-.29c-.22.52-.43,1-.63,1.47a1.35,1.35,0,0,1,.46.06c.33.18.63.41.94.62l-.08.12A3.88,3.88,0,0,1,267.28,109.85Z" transform="translate(-189.35 -29.55)"/><path class="cls-1" d="M230.43,149.35c0-.34,0-.68.11-1,0-.09.17-.18.27-.22s.32-.19.26-.47c-.36-1.47-.69-2.94-1-4.41-.11-.49-.23-.56-.73-.54a.62.62,0,0,1-.21-.08l.14,7,1.2-.28Z" transform="translate(-189.35 -29.55)"/><path class="cls-1" d="M252.82,101.62A2.86,2.86,0,0,1,253,101c.19-.4.16-.5-.28-.65a.75.75,0,0,1-.6-.83,1.28,1.28,0,0,0,0-.3,3.09,3.09,0,0,0,.41-.37c.25-.33.35-.77.8-.94.05,0,.09-.25.05-.32s-.22-.41-.49-.28a1.72,1.72,0,0,0-.53.34c-.68.77-1.37,1.54-2,2.35-.31.39-.27.42.19.64a.55.55,0,0,1,.18.13c-.23,0-.5-.2-.68-.13s-.26.37-.37.54l3.18,1.44c0-.19.14-.54,0-.72s-.49-.31-.72-.5Z" transform="translate(-189.35 -29.55)"/><path class="cls-1" d="M237.14,142a6.08,6.08,0,0,0,.81.3c.13,0,.29-.05.43-.08-.18-.37.32-.56.23-.94l-.34.13c.2-.38.69-.56.48-1.05l-.93,1c-.1-.55.46-.61.62-1l-.27,0,0-.11a3.05,3.05,0,0,1,.41,0c.28,0,.28,0,.21-.29a.21.21,0,0,1,0-.15,1.47,1.47,0,0,0,.23-1.3.59.59,0,0,1,0-.2l-1,.87.44-1c-.33-.08-.42.14-.48.35a3.16,3.16,0,0,1-1,1.34c-.12-.28-.08-.48.21-.6a1.15,1.15,0,0,0,.63-1c-.38-.17-.6.07-.76.35-.25.46-.46.94-.74,1.51l1.69.11v.14l-.48,0-.72,0h0c.17.26-.06.4-.2.45-.38.14-.28.47-.31.72,0,.07.29.17.45.27l.42.26Z" transform="translate(-189.35 -29.55)"/><path class="cls-1" d="M235.83,97.59l.1.58.4.09-.19.18v.1c.74-.32,1.32.2,2,.35a2.59,2.59,0,0,0,.16-1.55,3.82,3.82,0,0,0-.92-2A1.48,1.48,0,0,0,237,95c-.47-.29-.72-.15-.78.39,0,.32-.1.65-.14,1Z" transform="translate(-189.35 -29.55)"/><path class="cls-1" d="M263.54,113.12c0-.17-.07-.27,0-.32a.87.87,0,0,0-.13-1.22c-.8-.9-1.55-1.84-2.31-2.77a1.16,1.16,0,0,0-.29,1.38c.31.54.61,1.08.91,1.63s.44.83.67,1.24a2.94,2.94,0,0,0,.25.35l.51-.47,0,0-.44.73.13.08Z" transform="translate(-189.35 -29.55)"/><path class="cls-1" d="M259,116.24c.59,0,1.19.22,1.51-.53l.1.12-.2.36c.55.06.79,0,.81-.35l-.27.09a3.63,3.63,0,0,0,.08-1.82s-.13-.09-.13-.09a7.78,7.78,0,0,0-.12-2c-.25.23-.59.38-.53.8a.32.32,0,0,1-.1.19c-.23.22-.46.43-.7.67l-.15-.25Z" transform="translate(-189.35 -29.55)"/><path class="cls-1" d="M226.62,149.59c.08-1.05.16-2,.21-2.88,0-.12-.15-.25-.24-.37l-.38-.45c.79-.31.84-.43.77-1.52-.25.63-.29.65-.9.33-.24-.13-.37-.09-.44.17a8.5,8.5,0,0,0-.32,1.3,1,1,0,0,0,.32.67c.47.43.36,1,.36,1.52,0,.11-.44.27-.7.34s-.33-.09-.5-.09-.2.1-.31.15c.06.09.1.22.18.25C225.3,149.21,225.92,149.38,226.62,149.59Z" transform="translate(-189.35 -29.55)"/><path class="cls-1" d="M229.38,134.43l2.93-3.21c-.19-.42-.25-.43-.6,0-.08.1-.27.22-.35.19-.34-.13-.5.09-.73.29a2,2,0,0,0-.27-2.37c0,.31-.37.57,0,.9,0,0,0,.23,0,.24-.4.13-.34.5-.41.78-.22,1-.43,2.09-.64,3.13Z" transform="translate(-189.35 -29.55)"/><path class="cls-3" d="M223.87,144.33l.44.43a12.79,12.79,0,0,0,1.93-2.39l-.6-.19,0-.13-.88.7c-.83.67-1.64,1.37-2.48,2a1,1,0,0,0-.4.91C222.84,145.79,224,145.24,223.87,144.33Z" transform="translate(-189.35 -29.55)"/><path class="cls-1" d="M237.15,142l-.34.08a.47.47,0,0,0-.22.12c-.17.26-.32.53-.49.79a.74.74,0,0,1-.12.13l-.11-.08.7-1.17c-.27-.12-.58-.28-.9-.4,0,0-.19.09-.23.17-.16.29-.3.6-.44.9s0,.51.31.67a1.3,1.3,0,0,1,.33.23.49.49,0,0,0,.81,0,4.4,4.4,0,0,1,.82-.79l-1,1.45,1.31-.06.25-.42-.39.07.1-.09a3.66,3.66,0,0,0,.44-.44c.23-.32.12-.51-.25-.66a3.19,3.19,0,0,1-.64-.47Z" transform="translate(-189.35 -29.55)"/><path class="cls-1" d="M226.87,97.8l.54,0,0,.13,1.34-.67c.39-.2.78-.38,1.17-.57a.72.72,0,0,1,.74,0c.38.2.66,0,.81-.37.09-.23.2-.45.32-.72a.69.69,0,0,0-.2,0,4.38,4.38,0,0,1-.68.15c-.39,0-.78-.08-1.17-.11a.42.42,0,0,0-.26.12,1.42,1.42,0,0,1-.86.48,1.3,1.3,0,0,0-.64.42C227.6,97,227.24,97.4,226.87,97.8Z" transform="translate(-189.35 -29.55)"/><path class="cls-3" d="M253,112.82c0,.13-.25.3.05.39l-.23.61h-.15a5.42,5.42,0,0,0,1.53,1,5.56,5.56,0,0,1,.16-.76c.13-.39.3-.77.45-1.15a2.6,2.6,0,0,0,.23-.62,3.07,3.07,0,0,1,.56-1.76s0-.1,0-.21c-.48.49-1,1-1.43,1.48-.1.12,0,.36-.1.53s-.16.18-.24.28l-.26-.23-.57.4Z" transform="translate(-189.35 -29.55)"/><path class="cls-1" d="M267.16,106.29l-.52.34v-.25a.25.25,0,0,0-.09,0c-.63,0-1.26-.06-1.89,0a3.49,3.49,0,0,0-.82.24l0-.2a2.48,2.48,0,0,0-.59,0,.84.84,0,0,0-.41.27s.05.19.09.29a1.18,1.18,0,0,0,.25-.1,1.87,1.87,0,0,1,.32-.27c-.2.42-.13.76.29.91a1,1,0,0,0,1.11,0,.8.8,0,0,0,1.24.15c.18-.19.34-.39.53-.58s.38-.34.57-.51Z" transform="translate(-189.35 -29.55)"/><path class="cls-1" d="M231.5,134.43l.07-.69a3.89,3.89,0,0,0-.23-.37c-.12-.16-.25-.33-.47-.12s-.67.65-1,1-.38.39-.55.59a2.78,2.78,0,0,0-.19.27l.75.24v0l.38.16s.09,0,.1,0c.15.57.45.17.64.07a4.72,4.72,0,0,0,.73-.59l-.32-.39.74-.23C231.9,134.17,231.9,134.17,231.5,134.43Z" transform="translate(-189.35 -29.55)"/><path class="cls-1" d="M265.12,110.52c.44.27.44.27.7-.17a.68.68,0,0,1,.18-.2l.64-.45-.07-.11-.4.24.25-.44c-.27-.4-1.43-1-1.65-.9-.07-.12-.11-.32-.2-.35s-.28,0-.38.14-.4.44-.63.69l.84.77.22-.19c-.21.53.38.64.51,1Z" transform="translate(-189.35 -29.55)"/><path class="cls-1" d="M261.87,115c.2-.27.41-.53.6-.81.06-.08.12-.23.09-.29-.53-1-1.08-2-1.62-3,0,0-.06,0-.14-.11l.17,1.57.4,0c0,.09,0,.17-.08.19-.3.16-.28.4-.23.7.11.71.16,1.42.25,2.18l.57-.36Z" transform="translate(-189.35 -29.55)"/><path class="cls-1" d="M236.1,138.26c-.67.14-1.33.29-2,.42s-.53.1-.42.63a4.66,4.66,0,0,1,0,.56h.63l-.38-.19.71-.49c.06.16.11.34.17.51s0,.2.09.24a.91.91,0,0,0,1.19-.28c.21-.44.44-.88.68-1.36l-.73,0Z" transform="translate(-189.35 -29.55)"/><path class="cls-1" d="M233.46,147.14a2.2,2.2,0,0,1-.51.5.49.49,0,0,0-.27.66h0l.9-.85.09.08-.46.76s.07.05.08,0q1-.65,1.95-1.32a1.31,1.31,0,0,0,.27-.37.85.85,0,0,1,.06-.13c.42.09.45-.37.72-.48-.26-.64-.43-.74-.87-.5l.17-.48-.08-.06-.73.63.7.8-.44-.06-.25-.42a1.55,1.55,0,0,0-.27.23c-.18.27-.34.56-.52.84-.08.12-.18.21-.34.41l0-.33-.22.07Z" transform="translate(-189.35 -29.55)"/><path class="cls-1" d="M230.24,122.74c.08-.23.08-.44.19-.55s.44-.48.61-.44c.6.11.9-.35,1.45-.57L229,120.09Z" transform="translate(-189.35 -29.55)"/><path class="cls-1" d="M263.32,115l.41.32,1.64-.81-.06-.12-.51.24-.52.22.08-.25c.14-.07.27-.11.27-.14a.64.64,0,0,1,.5-.63c.07,0,.11-.1.19-.19.3.4.51,0,.77-.1l.08.1-.44.45.07.08c.18-.18.54-.39.51-.53a3.45,3.45,0,0,0-.55-1c-.26.31-.44.54-.63.75a.34.34,0,0,1-.21.13c-.19,0-.39,0-.57,0,0,0,0,0,0-.07,0-.24.22-.55-.11-.68-.11,0-.34.22-.51.34l-.45.36c-.44.38-.44.42-.05,1,.11-.56.25-1,.93-1.08-.09.15-.17.29-.24.43l-.63,1.12Z" transform="translate(-189.35 -29.55)"/><path class="cls-1" d="M232.46,143.21c0-.59-.35-1.24.21-1.78l1.37,1.06-.56.59.12.14c.17-.14.32-.3.5-.42s.21,0,.31-.05a.81.81,0,0,1,0,.27c-.26.52-.53,1-.83,1.62C233.26,144.07,232.48,143.94,232.46,143.21Zm.95-.69c-.43-.19-.67-.05-.85.49Z" transform="translate(-189.35 -29.55)"/><path class="cls-1" d="M265.34,100.89c.42-.07.94.09,1-.65l-.5.15c-.14,0-.27.14-.4.13a2,2,0,0,1-.49-.19,3.23,3.23,0,0,1,.27-.44c.06-.1.19-.15.25-.24a1.83,1.83,0,0,0,.11-.33,1,1,0,0,0-.34.12,7.69,7.69,0,0,0-.82,1,1.27,1.27,0,0,0-.15.72c0,.29,0,.58-.26.69a1.68,1.68,0,0,0-.79.83c-.19.3-.43.57-.72,1a2.18,2.18,0,0,0,.64-.25c.49-.46.95-1,1.43-1.45a.83.83,0,0,1,.21-.16C265.31,101.5,265.33,101.47,265.34,100.89Z" transform="translate(-189.35 -29.55)"/><path class="cls-1" d="M262.66,110.49a6.14,6.14,0,0,0-.49-.76c-.28-.34-.62-.63-.91-1a.38.38,0,0,1,0-.36c.25-.19.53-.34.87-.55-.18.41-.67.52-.62,1.08.2-.24.33-.42.49-.58s.27-.23.34-.19.22.23.32.35,0,.12.06.14l.51.2-.33.49.08.06.45-.29.48.46-1,1.29A4,4,0,0,1,262.66,110.49Zm-.71-1.56c.29-.06.63-.07.57-.45l-.13-.08Z" transform="translate(-189.35 -29.55)"/><path class="cls-1" d="M263,98.38a2.6,2.6,0,0,1-.46-.6c-.14-.38-.45-.35-.72-.31-.12,0-.24.26-.32.42a.88.88,0,0,0-.11.45c0,.11.11.31.18.32.28,0,.28.18.25.38a2.23,2.23,0,0,1-.18.75c-.12.19-.4.27-.61.41a1.88,1.88,0,0,0-.43.31s.06.26.12.27a3,3,0,0,0,.67,0s.1-.08.13-.13Z" transform="translate(-189.35 -29.55)"/><path class="cls-1" d="M234.22,142.34c-.56-.45-1.16-.87-1.69-1.36a4.66,4.66,0,0,1-.62-1c.44-.19.84,0,1.23.32a.71.71,0,0,0,.57,1l0-.76c.51.25,1,.47,1.44.71.06,0,.07.21,0,.31a1.41,1.41,0,0,1-.17.35c-.14.25-.28.5-.44.76C234.42,142.54,234.33,142.43,234.22,142.34Zm.24-.34.09-.84C234.09,141.29,234.05,141.46,234.46,142Z" transform="translate(-189.35 -29.55)"/><path class="cls-3" d="M235.35,111.12l-.46-.09a2.93,2.93,0,0,0,.29,1c.15.21.5.27.77.38,0,0,.1-.1.12-.17s.05-.24.07-.37h.1a1.84,1.84,0,0,1,0,.25,1.14,1.14,0,0,0,.8.87.49.49,0,0,0,.34-.1.33.33,0,0,0,0-.33c-.19-.31-.42-.61-.63-.92a1,1,0,0,1-.21-.41.57.57,0,0,0-.86-.49C235.29,110.9,235.29,110.9,235.35,111.12Z" transform="translate(-189.35 -29.55)"/><path class="cls-1" d="M268.62,107.13l.31-.41.08,0-.8,1.35c.32.14.67.06,1.57-1.05.51-.62.2-1.56.15-2.47L268.34,106l.05.11,1.25,0,0,.08a1.14,1.14,0,0,1-.36.19C268.75,106.43,268.69,106.49,268.62,107.13Z" transform="translate(-189.35 -29.55)"/><path class="cls-1" d="M224.27,148.92a4.38,4.38,0,0,0,.09-.52c0-.32.06-.65.13-1s-.07-.64-.51-.62c-.21,0-.42,0-.62,0a.8.8,0,0,0-.41.17,7.31,7.31,0,0,0-.52.59c-.14.15-.13.28,0,.38Z" transform="translate(-189.35 -29.55)"/><path class="cls-1" d="M232.68,148.3l-.76.25c-.07-.28.25-.38.36-.58s.33-.65.47-1c0-.06-.09-.18-.18-.33l-.54.81-.14-.08c.14-.23.28-.46.4-.7a1,1,0,0,0,.09-.3,2.36,2.36,0,0,0-.28,0c-.48,0-1,.18-1.2-.57l-.1.1c.11.43.23.86.33,1.29s.21.91.34,1.36a1.59,1.59,0,0,0,.24.47,3.31,3.31,0,0,0,.78-.38c.09-.06.12-.22.18-.33Z" transform="translate(-189.35 -29.55)"/><path class="cls-1" d="M230.45,128.21l1.3.41a1,1,0,0,1,.67.54,3.52,3.52,0,0,0,.6.88c.25.29.42.26.66,0l.26-.33c.08.07.35.11.13.38a4.72,4.72,0,0,1-.41.37l1.07.49c.05,0,.12.07.17.05.47-.19.77,0,1,.38a.37.37,0,0,0,.3.1,10.86,10.86,0,0,0-5.75-3.33Z" transform="translate(-189.35 -29.55)"/><path class="cls-1" d="M237.55,126.44c-.64-.78-1.26-1.53-1.89-2.27a.48.48,0,0,0-.3-.15c-.48-.06-1-.09-1.48-.13C234.26,124.51,237.19,126.56,237.55,126.44Z" transform="translate(-189.35 -29.55)"/><path class="cls-1" d="M227.79,134.48c.76-.07.81-.12.92-.78.08-.5.19-1,.27-1.51a.34.34,0,0,0,0-.28c-.3-.34-.3-.52,0-.81.09-.07.17-.15.29-.26-.6-.2-.25-.6-.25-1.05-.16.12-.33.18-.35.27C228.37,131.53,228.08,133,227.79,134.48Z" transform="translate(-189.35 -29.55)"/><path class="cls-1" d="M233.64,95.61l-.13.13c.36.38,0,.75,0,1.12.58.21,1.24.22,1.53-.41.13-.28.34-.53.47-.81a2.21,2.21,0,0,0,.11-.56c-.6.22-1.22,0-1.7.39Z" transform="translate(-189.35 -29.55)"/><path class="cls-1" d="M259.1,96.57a2.77,2.77,0,0,0,.15-.49.81.81,0,0,0-.89-.86.28.28,0,0,0-.19.11,1.7,1.7,0,0,0-.06,1.65c.08.14.28.32.39.3a.93.93,0,0,0,.48-.34C259.06,96.85,259.06,96.7,259.1,96.57Z" transform="translate(-189.35 -29.55)"/><path class="cls-1" d="M265.13,110.53c-.13-.08-.25-.17-.39-.24l-.46-.23-.07-.26c-.32.19-.4.38-.16.67l-.88.64.65.82.76-.83.1.07-.43.66s.09,0,.1,0c.25-.25.48-.52.74-.75a.34.34,0,0,0,0-.56Z" transform="translate(-189.35 -29.55)"/><path class="cls-3" d="M237,113.35c0,.63,0,1.14,0,1.65,0,.22-.08.5.26.57s.55.2.74-.12.33-.5.08-.82-.21-.54-.38-.76A3.69,3.69,0,0,0,237,113.35Z" transform="translate(-189.35 -29.55)"/><path class="cls-1" d="M259.91,111c-.12.35,0,.73-.45.89a.17.17,0,0,0-.1.1c0,.35-.07.71-.11,1.07l.1,0,.25-.27a14.28,14.28,0,0,0,.94-1.12,2.16,2.16,0,0,0,.18-.64l-.13,0-.93,1.25-.09-.06a.51.51,0,0,1,0-.17c.29-.39.57-.79.87-1.18a.63.63,0,0,0,0-.85c-.38-.06-.27.86-.91.37l-.09.72Z" transform="translate(-189.35 -29.55)"/><path class="cls-3" d="M267,109.26c-.08-.4.59-.58.22-1a.56.56,0,0,0-.88,0c-.08-.09-.12-.22-.2-.24a10.59,10.59,0,0,0-1.12-.23.57.57,0,0,0-.38.09C265.45,108.3,266,109.08,267,109.26Z" transform="translate(-189.35 -29.55)"/><path class="cls-1" d="M252.64,103.06a4.3,4.3,0,0,0-1.88-1.22c-.31-.12-.63-.19-.94-.3s-.34-.07-.43.17,0,.34.22.4Z" transform="translate(-189.35 -29.55)"/><path class="cls-3" d="M241.49,122.09c-.23.4-.46.8-.68,1.2,0,0,0,.1-.05.14a.81.81,0,0,0,0,1.22H241l-.28.86.09,0a2.49,2.49,0,0,0,.28-.74,7.36,7.36,0,0,1,.63-2c.07-.2-.07-.47-.11-.7Z" transform="translate(-189.35 -29.55)"/><path class="cls-1" d="M225.29,141.62l-.54-.66a1.6,1.6,0,0,1-.65,1.48l-.66-.64-.26,1.12a1.29,1.29,0,0,1,.21-.07,1,1,0,0,1,.44,0,.53.53,0,0,0,.58-.05c.31-.25.63-.48.93-.73a1.16,1.16,0,0,0,.18-.33Z" transform="translate(-189.35 -29.55)"/><path class="cls-3" d="M268.45,106.29l-1,.41,0-.17-1.09,1.33,1,.14a.34.34,0,0,0,.23-.11c.32-.48.63-1,1-1.47Z" transform="translate(-189.35 -29.55)"/><path class="cls-1" d="M235.37,126.34l-.47-.32c-.62-.35-1.23-.73-1.86-1a4.08,4.08,0,0,0-1-.34.37.37,0,0,0-.48.36l3.78,1.46Z" transform="translate(-189.35 -29.55)"/><path class="cls-1" d="M235.38,123.82l-1.08-1.24-1.27.62c.27.33.5.56.92.54S234.84,123.79,235.38,123.82Z" transform="translate(-189.35 -29.55)"/><path class="cls-1" d="M232.76,137.2a1.42,1.42,0,0,0-.4-.08,6,6,0,0,0-.68.11,2,2,0,0,1,.34,1.45,1.63,1.63,0,0,0,1.11-.07c.15-.13.06-.59-.14-.69-.53-.26-.53-.26-.22-.75Z" transform="translate(-189.35 -29.55)"/><path class="cls-1" d="M238.52,135.72,237.4,138a1.23,1.23,0,0,0,1.09-.65l.07.07-.08.34c.3.06.48-.11.43-.38-.1-.48-.19-1-.29-1.44C238.62,135.88,238.59,135.85,238.52,135.72Z" transform="translate(-189.35 -29.55)"/><path class="cls-1" d="M225.94,143l-1.28,1.75.38-.11a2.59,2.59,0,0,1,.12.52c0,.51,0,.51-.5.42-.08,0-.3.18-.29.19a1.22,1.22,0,0,0,.33.51c.22.14.31-.07.37-.26l.93-3Z" transform="translate(-189.35 -29.55)"/><path class="cls-1" d="M233.89,97.85l1.56.21.12-1.93Z" transform="translate(-189.35 -29.55)"/><path class="cls-1" d="M259,114.24l-1.27,1.69-.12-.07.15-.47-.08,0-.49.67c.43.06.79.28,1.14.07a1.15,1.15,0,0,0,.38.15c.06,0,.17-.15.17-.24C258.89,115.43,258.91,114.87,259,114.24Z" transform="translate(-189.35 -29.55)"/><path class="cls-1" d="M232.28,122.55l.16.17c.44.42.43.4,1,.13.38-.19.78-.34,1.17-.51l-.61-.62Z" transform="translate(-189.35 -29.55)"/><path class="cls-1" d="M254.09,103.48a1.87,1.87,0,0,1-.51.11c-.3,0-.6-.1-.9-.14-.64-.09-.67-.07-1,.53-.07.14-.13.28-.19.43.29.18.58.32.82,0a2.4,2.4,0,0,1,2.15-.69l-.41-.26Z" transform="translate(-189.35 -29.55)"/><path class="cls-1" d="M266.67,98.12a13.06,13.06,0,0,0-.08,1.43.93.93,0,0,0,.31.55c.05,0,.33-.1.45-.21.55-.52.53-.35.09-1A10.72,10.72,0,0,0,266.67,98.12Z" transform="translate(-189.35 -29.55)"/><path class="cls-1" d="M256.87,104.75l-2.58,0v.14c1.11,0,2.19.63,3.36.09a3.21,3.21,0,0,0-.44-.46,1.4,1.4,0,0,0-.46-.16Z" transform="translate(-189.35 -29.55)"/><path class="cls-3" d="M229.1,139.59l.17,1.56.19-.07-.24-1.75-.5.2c-.34.1-.63.25-1-.06-.21-.16-.71.07-1.08.11s-.5,0-.78,0l.07.26a4,4,0,0,1,1.95-.18l.05.14-1.2.91.14.17a5.33,5.33,0,0,1,1.75-1.3l.1.08-.73,1.55.39.18c-.06-.16-.21-.34-.16-.45.21-.49.48-.95.72-1.42Z" transform="translate(-189.35 -29.55)"/><path class="cls-1" d="M261.88,115c-.1.14-.2.3-.32.44s-.38.41-.15.59a.68.68,0,0,0,.67-.08,8.66,8.66,0,0,0,.8-1.23.33.33,0,0,0,0-.22c0-.08-.07-.19-.14-.21s-.15.06-.21.11l-.66.6Z" transform="translate(-189.35 -29.55)"/><path class="cls-3" d="M233.9,149.94l1-.24-.35-.77-.6.45c-.21.08-.51,0-.57.38l-.69.12V150c.28.14.48.47.87.33C233.75,150.25,234,150.19,233.9,149.94Z" transform="translate(-189.35 -29.55)"/><path class="cls-1" d="M218,142c.05.2.06.29.09.37s.15.39.24.62c.34-.23.93.21,1-.44,0-.21-.13-.65-.24-.67A5.06,5.06,0,0,0,218,142Z" transform="translate(-189.35 -29.55)"/><path class="cls-1" d="M263.88,104.47a.89.89,0,0,0,.95-.39,2.81,2.81,0,0,1,.56-.46c-.34-.17-.64-.54-1.13-.26C263.93,103.56,263.78,103.88,263.88,104.47Z" transform="translate(-189.35 -29.55)"/><path class="cls-3" d="M238.64,143.77c.25-1,.53-2,.74-3,.12-.56,0-1.17.17-1.72a3.43,3.43,0,0,0,0-1.53.66.66,0,0,0-.32-.4,12,12,0,0,1-.73,6.55Z" transform="translate(-189.35 -29.55)"/><path class="cls-1" d="M234.82,143.09l-.87,1.83.19.22,1.12-1.47c.19,0,0,.9.59.25Z" transform="translate(-189.35 -29.55)"/><path class="cls-1" d="M233.16,147a.66.66,0,0,1,.07-.25c.33-.4.67-.79,1-1.22l-.31-.34c-.35.33-.7.64-1,1s-.2.61.24.83Z" transform="translate(-189.35 -29.55)"/><path class="cls-1" d="M255.55,104.51c.12-.06.27-.18.33-.14.3.17.33-.05.39-.23.23-.7.23-.7-.48-1l-.18-.06A1.62,1.62,0,0,0,255.55,104.51Z" transform="translate(-189.35 -29.55)"/><path class="cls-1" d="M230.21,143.39l.55,2.31c.19-.13.46-.23.46-.32a2.54,2.54,0,0,0-.22-.95,10.65,10.65,0,0,0-.73-1.07Z" transform="translate(-189.35 -29.55)"/><path class="cls-1" d="M264.25,107.92c-.16-.12-.27-.23-.4-.31s-.23-.09-.29,0c-.27.18-.52.4-.79.62a1.45,1.45,0,0,0,.15.21c.41.44.41.44.82,0C263.89,108.24,264.05,108.11,264.25,107.92Z" transform="translate(-189.35 -29.55)"/><path class="cls-1" d="M233.22,139.91l-.22-1.09-1,.22.14.51-.09.12Z" transform="translate(-189.35 -29.55)"/><path class="cls-3" d="M263.78,117.18c-.09-.16-.15-.39-.28-.45s-.3.13-.55.25c-.16,0-.46-.18-.59.18l-.64-.08-.06.16a4.6,4.6,0,0,0,.82.37c.1,0,.26-.19.43-.34l.77.08Z" transform="translate(-189.35 -29.55)"/><path class="cls-3" d="M240.34,142.36l-.22.14c-.14-.29-.3-.33-.44-.07a3.85,3.85,0,0,0-.37,1.1c.27-.23.75.12.88-.36l.24-.77Z" transform="translate(-189.35 -29.55)"/><path class="cls-3" d="M239.32,145.08l-.57.2-.14-.5-1,1.46.67-.28.16.39Z" transform="translate(-189.35 -29.55)"/><path class="cls-3" d="M237.48,146.41l-1.18,1.25.68-.18.11.44,1.06-1.15-.6.13Z" transform="translate(-189.35 -29.55)"/><path class="cls-3" d="M236.17,147.77l-1.41,1.07c.55.07,1.11.33,1.48-.22C236.35,148.45,236.21,148.1,236.17,147.77Z" transform="translate(-189.35 -29.55)"/><path class="cls-1" d="M221.12,146.68a1.27,1.27,0,0,0,.18.37,6.31,6.31,0,0,0,.63.53c.07,0,.27,0,.29,0a.6.6,0,0,0,0-.37,1.19,1.19,0,0,0-.25-.47,1.31,1.31,0,0,0-.5-.31C221.42,146.41,221.28,146.57,221.12,146.68Z" transform="translate(-189.35 -29.55)"/><path class="cls-3" d="M235.83,97.59l.24-1.2,0-1.14c-.71.87-.32,1.9-.53,2.85l.16,0Z" transform="translate(-189.35 -29.55)"/><path class="cls-3" d="M268,114.25l.09.38,1-1-.5.06-.05-.44-1.17,1.17,0,.06Z" transform="translate(-189.35 -29.55)"/><path class="cls-1" d="M234.68,94.73l.91.29-.08-1.59-.13,0Z" transform="translate(-189.35 -29.55)"/><path class="cls-1" d="M221.77,144.91c.11-.17.35-.38.31-.51-.13-.46-.58-.79-.86-.71-.09,0-.22.14-.21.19a1.06,1.06,0,0,0,.19.45,4.29,4.29,0,0,0,.49.46Z" transform="translate(-189.35 -29.55)"/><path class="cls-1" d="M235,141l.05-.81-1.84-.09Z" transform="translate(-189.35 -29.55)"/><path class="cls-1" d="M237.13,144.76a1.1,1.1,0,0,1-.29-.11c-.22-.2-.4-.2-.59,0s-.21.25-.32.37a3.88,3.88,0,0,0,.58.42c.07,0,.26-.11.34-.21a2.49,2.49,0,0,0,.27-.51Z" transform="translate(-189.35 -29.55)"/><path class="cls-1" d="M264.65,99.68a2.34,2.34,0,0,0-.55.15,2.15,2.15,0,0,0-.62.45.49.49,0,0,0,.08.44.41.41,0,0,0,.4,0,12,12,0,0,0,.76-1Z" transform="translate(-189.35 -29.55)"/><path class="cls-1" d="M235.65,126.73c.42.35.83.71,1.26,1a2,2,0,0,1,.92,2.55,1.37,1.37,0,0,0-.09-2c-.46-.4-.93-.77-1.4-1.15l-.64-.52Z" transform="translate(-189.35 -29.55)"/><path class="cls-3" d="M210.55,92.52l-.76-1.3c-.51.15-1.15.2-1.43.9.09-.06.21-.1.25-.18.14-.3.34-.29.61-.21A2.17,2.17,0,0,1,210.55,92.52Z" transform="translate(-189.35 -29.55)"/><path class="cls-3" d="M264.17,116.48c.61.32,1,.35,1.27,0,.1-.14,0-.4.05-.67Z" transform="translate(-189.35 -29.55)"/><path class="cls-3" d="M226.28,142.86l-.26.83.54.42c.06,0,.18.07.2,0a.38.38,0,0,0,.11-.23A1.45,1.45,0,0,0,226.28,142.86Z" transform="translate(-189.35 -29.55)"/><path class="cls-3" d="M234.62,129.64l1.86,1.68c0-.15.07-.29,0-.36a4.47,4.47,0,0,0-.45-.42c-.1-.1-.21-.18-.3-.28A1.69,1.69,0,0,0,234.62,129.64Z" transform="translate(-189.35 -29.55)"/><path class="cls-3" d="M267.57,115.09l-.54.06.09-.56-1.07.91.41,0,.07.38Z" transform="translate(-189.35 -29.55)"/><path class="cls-1" d="M233.67,136.55c-.86-.53-1.34.14-1.93.43l0,.11Z" transform="translate(-189.35 -29.55)"/><path class="cls-3" d="M239.82,141.7a3.46,3.46,0,0,0,.3-2.87Z" transform="translate(-189.35 -29.55)"/><path class="cls-1" d="M249,102.06c-.41.13-.4.59-.74.94.56.18,1,.33,1.49.46,0,0,.06-.13.05-.1l-.66-.09.24-1-.06,0-.22.48-.33-.12Z" transform="translate(-189.35 -29.55)"/><path class="cls-1" d="M230.62,142.9l-.52,0,.94,1.35C231.16,143.52,231.13,143.42,230.62,142.9Z" transform="translate(-189.35 -29.55)"/><path class="cls-3" d="M270.38,110.85a1.15,1.15,0,0,0-.64,1l.24-.36v.39c.43,0,.65-.3.73-.94l-.32.44Z" transform="translate(-189.35 -29.55)"/><path class="cls-1" d="M257.05,103.73a1.17,1.17,0,0,0,1,1.17C257.79,104.44,257.71,103.87,257.05,103.73Z" transform="translate(-189.35 -29.55)"/><path class="cls-3" d="M213.13,91.87l-1.25,1.21C212.93,92.83,213.35,92.42,213.13,91.87Z" transform="translate(-189.35 -29.55)"/><path class="cls-3" d="M268.88,103.9l.95-.15-.3-.73a3.36,3.36,0,0,0-.52.39A1.3,1.3,0,0,0,268.88,103.9Z" transform="translate(-189.35 -29.55)"/><path class="cls-3" d="M232.76,137.2v0l.66.59.3-1C233.36,136.9,233,136.85,232.76,137.2Z" transform="translate(-189.35 -29.55)"/><path class="cls-1" d="M267.2,100.8a8.88,8.88,0,0,0,.83-.52c.08-.06.06-.26.08-.4s-.26,0-.35,0a1.12,1.12,0,0,0-.66.82Z" transform="translate(-189.35 -29.55)"/><path class="cls-3" d="M238.8,144.49c.73.18.86.12,1-.42C239.12,143.77,239,143.82,238.8,144.49Z" transform="translate(-189.35 -29.55)"/><path class="cls-1" d="M254.56,101c.51-.08.55-.16.38-.6-.07-.17-.07-.36-.13-.53a1.32,1.32,0,0,0-.29-.42,1.21,1.21,0,0,1,0,1C254.43,100.63,254.54,100.85,254.56,101Z" transform="translate(-189.35 -29.55)"/><path class="cls-3" d="M270.44,102.53c0-.65-.2-.91-.67-.88C269.83,102.43,269.93,102.55,270.44,102.53Z" transform="translate(-189.35 -29.55)"/><path class="cls-3" d="M229,134.81l.82-4.21-.1,0-.83,4.22Z" transform="translate(-189.35 -29.55)"/><path class="cls-1" d="M259.57,109.88l.3-.12c.12-.05.23-.12.35-.18l-.39-.64c-.07.07-.17.13-.18.2A6,6,0,0,0,259.57,109.88Z" transform="translate(-189.35 -29.55)"/><path class="cls-1" d="M236.4,144.4l-.28-.28-1.32,1,.07.11Z" transform="translate(-189.35 -29.55)"/><path class="cls-1" d="M255.45,97.07l-.37-1-.14,0c-.09.15-.29.37-.25.43a4.36,4.36,0,0,0,.61.68Z" transform="translate(-189.35 -29.55)"/><path class="cls-1" d="M230.43,149.34l1-.15c-.05-.37,0-.71-.39-.69-.22.32-.41.58-.61.85Z" transform="translate(-189.35 -29.55)"/><path class="cls-1" d="M236.79,140.35c-.49-.21-.54-.19-.77.25-.06.12-.11.24-.17.35a.79.79,0,0,0-.15.37c.08,0,.19,0,.24-.1.18-.21.33-.44.51-.65a1.45,1.45,0,0,1,.34-.23Z" transform="translate(-189.35 -29.55)"/><path class="cls-3" d="M227.12,135.1l.22.26-.43.26.63.12-.19,1.38A1.41,1.41,0,0,0,227.12,135.1Z" transform="translate(-189.35 -29.55)"/><path class="cls-1" d="M264,96.24l-1.15-.46C263,96.48,263.32,96.64,264,96.24Z" transform="translate(-189.35 -29.55)"/><path class="cls-3" d="M213.18,97.83a.63.63,0,0,0-.15-.19c-.05,0-.13-.09-.18-.07-.36.09-.6.49-1,.45,0,0-.11.12-.2.23C212.24,98.33,212.68,98,213.18,97.83Z" transform="translate(-189.35 -29.55)"/><path class="cls-3" d="M225.28,115.43c-.48-.56-.48-.56-1.33-.17v.12Z" transform="translate(-189.35 -29.55)"/><path class="cls-1" d="M260.73,108c.28-.61.18-1-.31-1C260.49,107.33,260.37,107.71,260.73,108Z" transform="translate(-189.35 -29.55)"/><path class="cls-3" d="M268.82,112.94c.36-.13.82.24,1-.33C269.17,112.35,269.12,112.36,268.82,112.94Z" transform="translate(-189.35 -29.55)"/><path class="cls-3" d="M238.8,125.75l.34.25-.32.3c.59.1.81-.13.66-.74l-.32.09Z" transform="translate(-189.35 -29.55)"/><path class="cls-1" d="M263.33,115a5.05,5.05,0,0,0-.51.28,1.94,1.94,0,0,0-.23.26l-.24.21c.63.06,1-.29,1-.77Z" transform="translate(-189.35 -29.55)"/><path class="cls-1" d="M261.68,105.26c.21.27-.24.66.28.81C262.33,105.38,262.32,105.32,261.68,105.26Z" transform="translate(-189.35 -29.55)"/><path class="cls-3" d="M237.86,133.15c.43.21.19.92.83.85C238.61,133.4,238.4,133.15,237.86,133.15Z" transform="translate(-189.35 -29.55)"/><path class="cls-3" d="M227.74,133.62l-.61,1C227.62,134.84,227.91,134.33,227.74,133.62Z" transform="translate(-189.35 -29.55)"/><path class="cls-3" d="M228,139a1.72,1.72,0,0,1-.05-.36,1.26,1.26,0,0,0,0-.37l-.32.26-1-.58a3,3,0,0,0-.38-.15Z" transform="translate(-189.35 -29.55)"/><path class="cls-1" d="M261.28,104.61c.31.12.6,0,.85-.48C261.66,104,261.5,104.13,261.28,104.61Z" transform="translate(-189.35 -29.55)"/><path class="cls-3" d="M226.67,150.27c.4,0,.75.19,1.16-.07C227.25,149.93,226.93,150,226.67,150.27Z" transform="translate(-189.35 -29.55)"/><path class="cls-1" d="M234,94.09l-.38-.1-.42-.11-.31.54,1.13-.2Z" transform="translate(-189.35 -29.55)"/><path class="cls-3" d="M236.52,114.1c-.1.11-.27.19-.3.32-.13.48,0,.66.49.87-.08-.21-.11-.44-.19-.46-.49-.13-.14-.33-.06-.5s.1-.06.15-.09Z" transform="translate(-189.35 -29.55)"/><path class="cls-3" d="M232,133.07c.72-.47.74-1.32,1.23-1.87l-.11-.07Z" transform="translate(-189.35 -29.55)"/><path class="cls-1" d="M255.53,101.73a.38.38,0,0,0,.06-.67c-.06-.07-.24,0-.36,0a.92.92,0,0,0,0,.29A4.42,4.42,0,0,0,255.53,101.73Z" transform="translate(-189.35 -29.55)"/><path class="cls-3" d="M238,132.05l.52.82c.28-.34,0-.55-.08-.76S238.17,131.81,238,132.05Z" transform="translate(-189.35 -29.55)"/><path class="cls-1" d="M261.06,106.23c-.08.41.1.57.31.59s.25-.2.38-.31Z" transform="translate(-189.35 -29.55)"/><path class="cls-3" d="M240.65,117.17c.07.25.11.45.18.63a.3.3,0,0,0,.24.1.25.25,0,0,0,.14-.18C241.12,117.48,241.09,117.19,240.65,117.17Z" transform="translate(-189.35 -29.55)"/><path class="cls-3" d="M237.26,133l.66,1.08c.09-.38.15-.6-.21-.73-.14-.05-.22-.28-.33-.43Z" transform="translate(-189.35 -29.55)"/><path class="cls-1" d="M262.75,104l.26.62.12,0,.06-.89Z" transform="translate(-189.35 -29.55)"/><path class="cls-1" d="M249.78,103.35l-.07-.7-.59.45Z" transform="translate(-189.35 -29.55)"/><path class="cls-1" d="M259.59,107.94l.1-1C259.2,107.15,259.17,107.48,259.59,107.94Z" transform="translate(-189.35 -29.55)"/><path class="cls-3" d="M256.15,116.36c.34.06.66.38,1,.08C256.82,116.57,256.54,116,256.15,116.36Z" transform="translate(-189.35 -29.55)"/><path class="cls-3" d="M252.9,117.74l-.24-.86-.36.51.61.35Z" transform="translate(-189.35 -29.55)"/><path class="cls-3" d="M251.85,97c-.46.22-.65.47-.55.77l.67-.66Z" transform="translate(-189.35 -29.55)"/><path class="cls-3" d="M209.32,92.61l-.06.45.51.4a1.23,1.23,0,0,0,0-.17c0-.14,0-.28,0-.43l-.23.1-.11-.38Z" transform="translate(-189.35 -29.55)"/><path class="cls-1" d="M253,104l-.54.57.66.13Z" transform="translate(-189.35 -29.55)"/><path class="cls-1" d="M260.23,100.65l.29-.68c-.24.07-.47.09-.48.14a2.52,2.52,0,0,0,.08.53Z" transform="translate(-189.35 -29.55)"/><path class="cls-3" d="M242.41,127.75l-.56.93C242.39,128.51,242.57,128.21,242.41,127.75Z" transform="translate(-189.35 -29.55)"/><path class="cls-1" d="M218.8,101.31c0,.3.32.28,1.06-.13Z" transform="translate(-189.35 -29.55)"/><path class="cls-1" d="M256.53,103.19c-.23-.19-.41-.47-.81-.27l.77.36Z" transform="translate(-189.35 -29.55)"/><path class="cls-3" d="M235.63,140.27a5.56,5.56,0,0,0-.47.5c0,.06,0,.18,0,.27a1.18,1.18,0,0,0,.22-.14c.11-.19.2-.39.29-.58Z" transform="translate(-189.35 -29.55)"/><path class="cls-3" d="M229.37,130.67l.1-.86c-.37.05-.28.35-.34.54S229.25,130.52,229.37,130.67Z" transform="translate(-189.35 -29.55)"/><path class="cls-3" d="M229.87,124.52l.28-1.22-.08,0-.37,1.19Z" transform="translate(-189.35 -29.55)"/><path class="cls-3" d="M246.69,102.65l.26-1-.09,0-.35,1Z" transform="translate(-189.35 -29.55)"/><path class="cls-3" d="M235.82,112.89l-.57-.32-.08.09.36.49Z" transform="translate(-189.35 -29.55)"/><path class="cls-3" d="M229.25,126.39l-.15,1.29A1.33,1.33,0,0,0,229.25,126.39Z" transform="translate(-189.35 -29.55)"/><path class="cls-3" d="M239.19,115.53l-.39-1-.14.05.38,1Z" transform="translate(-189.35 -29.55)"/><path class="cls-3" d="M231.67,132.53c.37.05.55-.14.57-.6Z" transform="translate(-189.35 -29.55)"/><path class="cls-1" d="M259,108.33c.49-.07.51-.15.13-.74Z" transform="translate(-189.35 -29.55)"/><path class="cls-3" d="M224.85,137.85c.44.06.22-.5.58-.52l-.14-.14-.57.53Z" transform="translate(-189.35 -29.55)"/><path class="cls-1" d="M256.86,107.53l-.57-.27-.11.37.63.05Z" transform="translate(-189.35 -29.55)"/><path class="cls-3" d="M210.26,100.87l-.67.32.07.16.68-.29Z" transform="translate(-189.35 -29.55)"/><path class="cls-3" d="M208.91,99.26c-.32.1-.74,0-.89.44l.5-.19.45-.11Z" transform="translate(-189.35 -29.55)"/><path class="cls-1" d="M233.64,95.61l.26-.14-.57-.3C233.26,95.53,233.37,95.65,233.64,95.61Z" transform="translate(-189.35 -29.55)"/><path class="cls-3" d="M211.35,91.11c-.55.63-.63.93-.26,1.17C210.8,91.79,211.32,91.55,211.35,91.11Z" transform="translate(-189.35 -29.55)"/><path class="cls-3" d="M224.9,139.12l.08-.47-.1,0-.32.63.08.09.32-.11Z" transform="translate(-189.35 -29.55)"/><path class="cls-3" d="M237.12,144.75l.25-.36-.57-.17.33.54Z" transform="translate(-189.35 -29.55)"/><path class="cls-1" d="M260.17,107.63c-.3.38-.3.38.21.52Z" transform="translate(-189.35 -29.55)"/><path class="cls-3" d="M233.45,147.15l.41-.42,0-.06-.67.32h0c-.11.42.16.17.28.16Z" transform="translate(-189.35 -29.55)"/><path class="cls-3" d="M235.52,123.58l.7.22,0-.12C236.07,123.45,235.79,123.51,235.52,123.58Z" transform="translate(-189.35 -29.55)"/><path class="cls-1" d="M233.22,97.69c.47.35.63,0,.84-.25Z" transform="translate(-189.35 -29.55)"/><path class="cls-3" d="M232.57,96.88l-.42,1,.09,0,.43-1Z" transform="translate(-189.35 -29.55)"/><path class="cls-3" d="M254.09,103.48l-1-.39c.22.41.61.37,1,.39Z" transform="translate(-189.35 -29.55)"/><path class="cls-3" d="M240.28,120.35l-.46.41.62.06Z" transform="translate(-189.35 -29.55)"/><path class="cls-1" d="M253.82,97.75l.28.32.12-.39-.36-.06Z" transform="translate(-189.35 -29.55)"/><path d="M234.64,119.94a.52.52,0,0,1,.17.43.47.47,0,0,1-.6.41c-.12,0-.21-.2-.27-.26C234.06,120.1,234.4,119.83,234.64,119.94Zm-.47.45s0,.2.07.22a.3.3,0,0,0,.25-.06.87.87,0,0,0,.15-.25l0-.13A2.89,2.89,0,0,0,234.17,120.39Z" transform="translate(-189.35 -29.55)"/><path class="cls-4" d="M253.31,110.23l.28-.1.36.63c.13-.84.13-.84,1-1.54a1.3,1.3,0,0,0-.28.11.38.38,0,0,1-.51,0c-.33-.25-.49-.16-.58.2S253.39,110,253.31,110.23Z" transform="translate(-189.35 -29.55)"/><path d="M254.86,107l-2.09,1.1,1.81-.85A1.29,1.29,0,0,0,254.86,107Z" transform="translate(-189.35 -29.55)"/><path d="M252.13,108.38l-1.72.84Z" transform="translate(-189.35 -29.55)"/><path class="cls-4" d="M252.25,106.77l-.41.89c.56-.23.67-.61.39-.89Z" transform="translate(-189.35 -29.55)"/><path class="cls-4" d="M252.23,106.77l.7-.24,0-.09-1.23.3h0l.57,0Z" transform="translate(-189.35 -29.55)"/><path class="cls-4" d="M251.68,106.74l-1.33.22,0,.17,1.29-.4Z" transform="translate(-189.35 -29.55)"/><path class="cls-4" d="M237.07,137.38l-.23-.5-.57.28c.09.14.15.36.27.4S236.83,137.47,237.07,137.38Z" transform="translate(-189.35 -29.55)"/><path d="M235.45,136.23l1.37-.23,0-.17-1.32.41Z" transform="translate(-189.35 -29.55)"/><path class="cls-4" d="M267.73,104.66l-.47.79c.53,0,.57,0,.61-.72Z" transform="translate(-189.35 -29.55)"/><path class="cls-4" d="M267.09,104.15c-.51,0-.51.28-.48.6Z" transform="translate(-189.35 -29.55)"/><path d="M267.28,109.85a3.88,3.88,0,0,0,1.31.81l.08-.12c-.31-.21-.61-.44-.94-.62a1.35,1.35,0,0,0-.46-.06Z" transform="translate(-189.35 -29.55)"/><path class="cls-4" d="M232.56,143l.85-.49C233,142.33,232.74,142.47,232.56,143Z" transform="translate(-189.35 -29.55)"/><path class="cls-4" d="M262.39,108.4l-.44.53c.29-.06.63-.07.57-.45Z" transform="translate(-189.35 -29.55)"/><path class="cls-4" d="M234.55,141.16c-.46.13-.5.3-.09.84Z" transform="translate(-189.35 -29.55)"/><path class="cls-3" d="M234.6,120.17a2.89,2.89,0,0,0-.43.22s0,.2.07.22a.3.3,0,0,0,.25-.06.87.87,0,0,0,.15-.25Z" transform="translate(-189.35 -29.55)"/><path class="cls-5" d="M259.14,198.72c9,0,15,5.35,15,13.39,0,4.94-2.4,8.58-6.11,9.67,4.32,1.11,7.14,5.23,7.14,10.92,0,8-6,13.39-14.9,13.39H238.48a1,1,0,0,1-1-1V199.75a1,1,0,0,1,1-1ZM256,217.32a3.17,3.17,0,1,0,0-6.31h-4.33v6.31Zm1.23,16.48a3.3,3.3,0,1,0,0-6.59h-5.56v6.59Z" transform="translate(-189.35 -29.55)"/><path class="cls-5" d="M292.19,198.72a1,1,0,0,1,1,1v45.38a1,1,0,0,1-1,1H280a1,1,0,0,1-1-1V199.75a1.05,1.05,0,0,1,1-1Z" transform="translate(-189.35 -29.55)"/><path class="cls-5" d="M338.68,245.27c.34.48.07.82-.48.82H322.27a1.85,1.85,0,0,1-1.44-.82l-8.52-17.17v17a1,1,0,0,1-1,1H299.13a1,1,0,0,1-1-1V199.75a1,1,0,0,1,1-1h12.16a1,1,0,0,1,1,1v15.38l8.24-15.59a1.93,1.93,0,0,1,1.58-.82h15c.55,0,.75.34.48.82l-13.6,21.76Z" transform="translate(-189.35 -29.55)"/><path class="cls-5" d="M374.2,233.73a1,1,0,0,1,1,.9v10.5a1,1,0,0,1-1,1H342.27c-.48,0-1-.55-1.1-1V199.68a.87.87,0,0,1,1-1h31.23a1.06,1.06,0,0,1,1.1,1v10.37a1,1,0,0,1-1.1,1H355.45v5.42H370a.82.82,0,0,1,.89.89l-1,9.62a1.21,1.21,0,0,1-1.17.88H355.45v5.84Z" transform="translate(-189.35 -29.55)"/><path class="cls-5" d="M441.39,198.57a.88.88,0,0,1,.95.94l-1,10.28a1.15,1.15,0,0,1-1.08,1H430.17v33.53a1,1,0,0,1-.95.95h-12a1,1,0,0,1-1-.95V210.74H405a1,1,0,0,1-.95-1V199.58a1,1,0,0,1,.95-1Z" transform="translate(-189.35 -29.55)"/><path class="cls-5" d="M477.19,233.05a1,1,0,0,1,1,.88v10.34a1,1,0,0,1-1,.95H445.74c-.47,0-.94-.54-1.08-1v-44.7a.85.85,0,0,1,.95-.94h30.77a1,1,0,0,1,1.08.94v10.21a1,1,0,0,1-1.08,1H458.73v5.34h14.33a.81.81,0,0,1,.88.87l-.95,9.47a1.18,1.18,0,0,1-1.15.88H458.73v5.75Z" transform="translate(-189.35 -29.55)"/><path class="cls-5" d="M485.72,231c.21-.68.68-.88,1.22-.54a25.69,25.69,0,0,0,9.4,3.25c2.17,0,3.58-1,3.58-2.58,0-4-19-3.78-19-18.52,0-9.06,6.83-15.08,17.11-15.08a29.3,29.3,0,0,1,15.15,4.87c.54.34.74.88.54,1.22l-4.26,9.53c-.2.67-.68.88-1.22.54a27.51,27.51,0,0,0-9.53-3.52c-2.1,0-3.45.95-3.45,2.44,0,4,19.14,3.72,19.14,18.6,0,9-7,15-17.38,15-5.68,0-11.63-1.75-15-4.46-.53-.4-.74-.88-.53-1.21Z" transform="translate(-189.35 -29.55)"/><path class="cls-5" d="M553.09,198.57a.88.88,0,0,1,.95.94l-1,10.28a1.15,1.15,0,0,1-1.08,1H541.87v33.53a1,1,0,0,1-1,.95H529a1,1,0,0,1-1-.95V210.74H516.71a1,1,0,0,1-.94-1V199.58a1,1,0,0,1,.94-1Z" transform="translate(-189.35 -29.55)"/><path class="cls-6" d="M349.83,271.32a12.18,12.18,0,0,1,5.35,3.84,9.72,9.72,0,0,1,2,6.17h-9a3.54,3.54,0,0,0-1.62-3,7.61,7.61,0,0,0-8.94.65,7.15,7.15,0,0,0-1.7,5.09v2.78a7.15,7.15,0,0,0,1.7,5.09,6.61,6.61,0,0,0,5,1.8,6.74,6.74,0,0,0,3.91-1.11,3.32,3.32,0,0,0,1.62-2.84h-6.64v-6.06h15.63v16.64H352.3l-.94-2.95q-4,3.46-10.47,3.47-7.27,0-10.95-3.88t-3.65-11.55q0-7.57,4.15-11.5T342.25,270A21,21,0,0,1,349.83,271.32Z" transform="translate(-189.35 -29.55)"/><path class="cls-6" d="M377.81,277.15a4,4,0,0,1,.77.28v7.24h-2.73a4.71,4.71,0,0,0-3.81,1.39,6.22,6.22,0,0,0-1.17,4.11v10.19H362.4V277.48h6.94l.55,3.46a5.9,5.9,0,0,1,2.43-3,7,7,0,0,1,3.74-1A5.83,5.83,0,0,1,377.81,277.15Z" transform="translate(-189.35 -29.55)"/><path class="cls-6" d="M395,307a9.69,9.69,0,0,1-7.09,2.5,14.19,14.19,0,0,1-4.9-.78v-5.16h3.41a3.49,3.49,0,0,0,3.79-3.16l-8.94-22.88h9.11l4.3,15.21h.3l4-15.21h8.35l-8,22.18A19.3,19.3,0,0,1,395,307Z" transform="translate(-189.35 -29.55)"/><path class="cls-6" d="M430,280q3.38,3.06,3.38,8.91t-3.38,8.9q-3.39,3.06-9.31,3.06t-9.28-3q-3.36-3-3.36-8.92t3.36-8.93q3.36-3,9.28-3T430,280Zm-13.48,7.69v2.47q0,4.86,4.17,4.86t4.22-4.86V287.7q0-4.89-4.22-4.89T416.52,287.7Z" transform="translate(-189.35 -29.55)"/><path class="cls-6" d="M458.85,279.17q1.95,2.2,1.95,6.37v14.82h-8.47V286.58a3.63,3.63,0,0,0-.74-2.37,2.61,2.61,0,0,0-2.11-.88,3.35,3.35,0,0,0-2.56,1,3.58,3.58,0,0,0-1,2.55v13.44h-8.47V277.48h6.94l.55,3.46a9.44,9.44,0,0,1,3.48-2.9A9.94,9.94,0,0,1,453,277C455.58,277,457.54,277.69,458.85,279.17Z" transform="translate(-189.35 -29.55)"/><line class="cls-7" x1="33.06" y1="231.22" x2="372.81" y2="231.03"/></svg>